<svg xmlns="http://www.w3.org/2000/svg" viewBox="0 0 415.31 756.33"><g id="e46c2a77-1324-43a8-980a-67c119c85f6e" data-name="Layer 2"><g id="b8ba668c-8b9a-4ec6-8aff-9bf38b87efef" data-name="Layer 1"><path d="M413,183.16v-5l-6-20h-1v-2h-1c-.67-2-1.33-4-2-6l-2-1v-2h-1v-2l-3-2v-2l-4-3-7-8h-2c-.33-.66-.67-1.33-1-2h-2c-.33-.66-.67-1.33-1-2l-4-1v-1h-2v-1h-3v-1h-3v-1h-3v-1h-5v-1h-9v-1h-4v1H337v1h-4v1l-7,1v1h-2v1h-3v1h-2v1h-2c-.33.67-.67,1.34-1,2l-4,1-2,3h-2l-4,5h-2c-.33.67-.67,1.34-1,2l-7,6c-.33-1-.67-2-1-3h-1v-2l-2-1c-.33-1.33-.67-2.66-1-4l-2-1v-3h-1v-2h-1c-.33-1.66-.67-3.33-1-5h-1v-3c-5-11.21-10.26-23.52-15-35-3.65.13-9.17,1.14-11,3h-1c-1.52-8.28-1.08-20.13-1-30-5.46.72-6.17,4.72-10,7-.6,2,.14.86-1,2q-4-16-8-32h-1c-.33-2-.67-4-1-6h-1v-2h-1c-.33-2-.67-4-1-6h-1v-3h-1v-3h-1v-3h-1v-3h-1v-2h-1c-.33-2.33-.67-4.66-1-7h-1c-1.13-1.12,0-.42-2-1-.77,2-.29,3.8-1,6h-1v4h-1v3h-1v4h-1v4h-1v4h-1v4c-6,17.52-9.78,37.71-16,55-.33,2.67-.67,5.34-1,8h-1q-1,5.5-2,11h-1v3h-1v4h-1c-.33,2.34-.67,4.67-1,7h-1c-.6,2,.14.86-1,2l-5-9-2-1v-2l-2-1v-2l-2-1a18.69,18.69,0,0,1-3-7h-3q-3.5,12-7,24c-.33,2.67-.67,5.34-1,8h-1v3h-1v4h-1v4h-1v4h-1v4h-1c-.33,2.34-.67,4.67-1,7h-2l-1-3h-1l-1-3-2-1v-2l-2-1v-2l-2-1v-2l-3-2v-2l-2-1-1-3h-1v-2l-3-2v-2l-2-1-1-3h-1v-2l-3-2v-2l-2-1v-2l-2-1v-2l-3-2v-2l-2-1v-2l-2-1c-2.11-3.11-3.22-6.63-6-9-1.13-1.12,0-.42-2-1-1,2.68,0,7.32-1,11h-1v9c-3.59,12.62-2.39,29.4-6,42v9h-1v9H99v8H98v9H97v8H96v9H95v8H94c-1,3.32.79,6.87-1,9v5H92q-4-15-8-30H82l-9,26H72v2H71v3H70c-.33,1.67-.67,3.34-1,5H68v2H67v3H66v2H65c-.33,2-.67,4-1,6H63v2H62v3H61v2H60v3H59c-.33,1.67-.67,3.34-1,5H57v2H56v3H55v2H54c-.33,2-.67,4-1,6H52v2H51v3H50v2H49v3H48c-.33,1.67-.67,3.34-1,5H46v2H45c-.33,1.67-.67,3.34-1,5H43v1c-1.61.17-1.21-1.55-2-2H39l-1-2-4-1q-2,13.5-4,27v8H29q-.49,7.5-1,15h1v18c1.52,5.45-.69,14.93,1,21h1v16q.49,6.51,1,13c-1.53,4.83-5.39,9.15-6,15-2.24-.29-2.64-.08-4-1v-1H20l-1-2-4-1-1-2H12l-1-2H9v-1c-3-1.73-5.89-2.48-8-5H0q2.51,21,5,42H6c.33,2,.67,4,1,6H8v2H9v3h1c.67,3,1.33,6,2,9h1v2h1v3h1v3h1v3h1v3h1v2h1v3h1v3h1v3h1v3c6.06,13.88,11,30.1,17,44v3h1q.49,8,1,16h1v6h1v5h1v4h1c.33,2.34.67,4.67,1,7h1v3h1v3h1v2h1v3h1v2h1v3h1c.33,1.34.67,2.67,1,4h1l2,6h1l2,6h1a1.6,1.6,0,0,1-1,2q1,6.51,2,13h1c.33,1.34.67,2.67,1,4h1v3h1v2h1c.33,2,.67,4,1,6,2,5.08,5,9.89,5,17H71c-.74,4.13-2.6,7.27-1,12h1v3l2,1c-.33,3.67-.67,7.34-1,11h1v14H72c-.33,1.34-.67,2.67-1,4H70v2l-3,2v2l-3,2c-1.16,1.72,0,2.27-2,4-.08,9.33.91,6.82,4,12,5.68-.11,5.61-1.14,9-3,.58-1.39.35-2.25,1-4h1v-7h1v-8h1c.33-3.66.67-7.33,1-11H79v-3H78v-3H77c-.33-2-.67-4-1-6H75v-3h1c2-1.38,4.39,2.62,9,1v-1l3-1,5,6h1v2l2,1,4,5,4,1v1h4v1l21,1,5,7h2c.33.67.67,1.34,1,2h3v1h6v-1c3.6-.95,6.66,1.38,9,1v-1h6v-1h3c-1.52,1.22.31,5.17,1,7v3h1v2l2,1v2c2.72,4.06,7,7.2,8,13h1c-.33.67-.67,1.34-1,2h-1c.3,1.38.33-.24,1,1v7c.94,1.61,3.35.26,5,1v1h2c.33.67.67,1.34,1,2,1.57,1.45,3.61,2.39,5,4a12.6,12.6,0,0,0,5-1,12.35,12.35,0,0,0-3-7l-2-1v-2l-2-1v-2l-2-1v-2l-2-1c-.33-1.66-.67-3.33-1-5h-1v-2h-1c-.33-2.33-.67-4.66-1-7-3.67-10.88-5.72-22.61-19-24,.33-1.33.67-2.66,1-4,6,.61,12.75,3.34,18,5h5v1l14,1c10.11,2.86,34.07,1.59,43-1h6v-1h5v-1l8-1v-1h3v-1h3v-1h4v-1h2v-1l6-1v-1l4-1v-1h3v-1l6-2v-1h2v-1l6-2c.33-.66.67-1.33,1-2l6-2c.33-.66.67-1.33,1-2h2c.33-.66.67-1.33,1-2h2c.33-.66.67-1.33,1-2h2c.33-.66.67-1.33,1-2h2c.33-.66.67-1.33,1-2h2c.33-.66.67-1.33,1-2l3-1,2-3h2l2-3h1c.33-.66.67-1.33,1-2h2l7-8h2c.33-.66.67-1.33,1-2l5-4v-2l8-7v-2l4-3v-2l2-1v-2l3-2v-2l2-1c.33-1.33.67-2.66,1-4l2-1c.67-2,1.33-4,2-6h1v-2h1c.67-2,1.33-4,2-6h1v-3h1v-2h1v-3h1v-3h1v-3h1v-3h1q1-6.49,2-13h1v-6h1v-7h1v-12c.95-3.35,2.33-16.21,1-21h-1v-16h-1c-1.58-5.73.72-13.4-1-18h2c1.21-5.43,4.68-9.65,7-14v-2h1v-2h1v-2h1v-2h1v-2h1c.67-2,1.33-4,2-6h1v-3h1c1.38-2.83,1.86-5,3-8h1q-4-23-8-46c-4.64.64-5.61,3.09-10,4l-3-37h-3c-1.17,9.25-8.35,14.73-10,24-5.39-1.45-5.89-6.47-10-9,.22-10,2.5-19.3,4-28l14,1v1c6.48,1.83,19.22-.83,25-1,.85-1.12-.13-.15,1-1a12.68,12.68,0,0,0-1-5l-21-6v-1h-4v-1h-3v-1l-6-1v-1h-1c.73-2.15,2.26-5.12,3-7v-3h1v-3h1v-2h1v-3h1v-3c2.2-5.06,5.87-10.8,7-17,4.08,1.09,1.22.44,3,3h1c.33,1,.67,2,1,3h1v3l5-1v1l6,2v-1c1.13-.85.16.14,1-1l-5-4v-1h-2v-1h-2l-1-2h-1v-2h-1c-1.16-2,0-2.24-2-4,.27-7.08,2.93-10.24,5-15,.33-2,.67-4,1-6h1v-2h1c.33-2,.67-4,1-6h1c.33-2,.67-4,1-6h1v-3h1v-3h1v-3h1v-3h1q1-6,2-12h1v-5h1v-5h1v-6h1v-9C416.38,206.75,415.18,190.55,413,183.16Zm-299,503-15-3v-1H97v-1l-3-2c.54-4.39,2.5-9-1-12v-2c-.54-.92-10-4.69-12-5a49,49,0,0,0-6-14l-2-1v-2H72v-2H71v-2H70c-.33-1.66-.67-3.33-1-5H68c.6-2-.14-.86,1-2v-1h1a38.9,38.9,0,0,0,4,6l3,2a137.64,137.64,0,0,0,15,17l4,3c.33.67.67,1.34,1,2l3,1c1.14,2.13-1.14,4-1,5h1v2l3,2v1h2c3.55,2.61,5.13,9.42,9,12Zm30,4h-2c-.33.67-.67,1.34-1,2-1.67.5-1.8-1-2-1l-12-1c-.53-5.78-5.63-10.08-10-12v-2l6,2c.33.67.67,1.34,1,2l6,2c4.27,2.3,8.6,6,14,7Zm206-506-3,13-9,15c-1.13.86-.16-.13-1,1-3.62-3.6-.17-8-2-13h-1c-.33-1-.67-2-1-3a9.84,9.84,0,0,0-4-1c-.1-3.27-.58-8.29,1-10-1.29-4.7-6.7-10.69-9-15h-2c-1.52.81-5.59,9.63-6,12h-2c-.05-6.46-1.09-10.85-2-16-3.21-.86-3.53-2.56-6-4,.38-3.54,1.42-4.85,2-8h3v-1l3-1c.33.67.67,1.34,1,2,2.34,1.21,5.47,1,9,1l6-5c.33-2,.67-4,1-6,3.48,1,5.64,3.81,8,6,.33.67.67,1.34,1,2,2.38,1.53,7.22,1.05,11,1,.6,3.09,2.25,5.67,3,8v7h1C353.05,172.93,350.77,181.76,350,184.16Z" style="fill:#f4f4f4;fill-rule:evenodd"/><path d="M302.71,141.8c8.52-4.05,18.49-5.73,27.64-2.82C340,142,347,150.18,349.91,159.73c5.51,18.3-1.8,39.1-13.06,53.72-11,14.23-26.41,24.32-42.22,32.44-17.08,8.77-35.11,15.48-52.94,22.51-19,7.51-38.22,14.74-56.88,23.12a215.17,215.17,0,0,0-26.37,13.68c-7.89,5-15.6,10.25-23.05,15.86a268.09,268.09,0,0,0-39.4,36A215.27,215.27,0,0,0,66.5,399.44a201.42,201.42,0,0,0-18.22,49.43,229.87,229.87,0,0,0-5.34,56.52c.12,5,.4,10.07.81,15.09.13,1.68,2.78,1.69,2.64,0a240.91,240.91,0,0,1,2.23-59.8A201.55,201.55,0,0,1,64.67,409,207.9,207.9,0,0,1,93,364.68,257.07,257.07,0,0,1,132,327c15.19-11.95,31.37-22.56,48.89-30.77,19.09-9,38.91-16.29,58.49-24.08,18-7.13,36.14-13.81,53.47-22.4,16.12-8,31.95-17.82,43.67-31.69,11.87-14,19.76-33.14,17.45-51.76-1.2-9.71-5.58-18.94-13.47-25-7.33-5.61-16.73-7.32-25.75-6a47.47,47.47,0,0,0-13.35,4.19c-1.53.73-.19,3,1.34,2.28Z"/><path d="M220.75,1.63,231,30.89c1.35,3.87,2.84,7.72,4.07,11.64,1.18,3.77,1.94,7.72,2.9,11.54l4,16.1a1.32,1.32,0,0,0,2.55-.7l-3.39-13.55c-1.16-4.64-2.12-9.39-3.49-14-1-3.29-2.27-6.51-3.4-9.74l-6.64-19L223.3.92c-.56-1.59-3.11-.9-2.55.71Z"/><path d="M220.75,1.5l-2.89,11.62-6.92,27.79-8.36,33.61-7.24,29.13c-1.17,4.69-2.48,9.37-3.51,14.09a1.94,1.94,0,0,1-.05.2,1.32,1.32,0,0,0,2.55.7L197.22,107l6.91-27.79,8.36-33.61,7.25-29.13c1.17-4.69,2.48-9.36,3.5-14.08l.06-.21a1.32,1.32,0,0,0-2.55-.7Z"/><path d="M220.7,1.28l.06,12.33.14,29.61.16,35.58.15,31,0,10.15a41.65,41.65,0,0,0,0,4.87,1.33,1.33,0,0,1,0,.2l.39-.93-18.09,15.07L201,141.25l2.07.27-10-15.15-15.95-24.23-3.64-5.54c-.93-1.41-3.22-.09-2.28,1.34l10,15.14,15.95,24.23,3.64,5.54a1.34,1.34,0,0,0,2.07.27l11.76-9.8,7.14-5.95c.8-.67,2.09-1.36,2.14-2.5.1-2,0-4.12,0-6.16l-.06-13.81-.09-19-.1-21.72-.11-21.73-.09-19.36-.06-14.46c0-2.36,0-4.73,0-7.09v-.3a1.32,1.32,0,0,0-2.64,0Z"/><path d="M109,93.15l6.81,9.74,16.26,23.23,19.42,27.75,16.3,23.29c2.29,3.28,4.46,6.68,6.89,9.86a21.21,21.21,0,0,0,1.93,2,1.33,1.33,0,0,0,2.25-.93l-.53-8.95-1.29-21.48-1.55-26-1.35-22.49c-.22-3.65-.35-7.32-.65-11a.81.81,0,0,1,0-.16c-.1-1.68-2.75-1.7-2.64,0l.53,9,1.29,21.49,1.55,26L175.59,177l.44,7.42a25.84,25.84,0,0,0,.21,3.53.86.86,0,0,1,0,.16l2.26-.93-1-1a6,6,0,0,0-.56-.57c-.27-.21,0,0,.06.12l-.17-.24-1-1.44-4.4-6.28L156,155.62l-19.38-27.69-16.86-24.09c-2.76-4-5.48-8-8.3-11.86l-.11-.17c-1-1.38-3.26-.06-2.28,1.34Z"/><path d="M300.39,160.33a1.33,1.33,0,0,0-1.34,1.51,2,2,0,0,0,.56,1,29,29,0,0,0,2.17,2.12c1.69,1.58,3.38,3.22,5.19,4.68.48.39,0,.05,0-.15-.05.13.19.68.23.82.23,1.06.38,2.14.53,3.21.46,3.2.8,6.42,1.14,9.63.38,3.58.73,7.16,1.08,10.75.15,1.68,2.8,1.69,2.64,0-.6-6.29-1.2-12.58-2-18.84a32.64,32.64,0,0,0-1-6.15c-.47-1.39-2.21-2.41-3.25-3.35s-2.15-2-3.21-3c-.4-.38-.8-.76-1.19-1.15-.15-.15-.29-.31-.43-.46a1.06,1.06,0,0,0-.1-.12,1.22,1.22,0,0,1,.21,1.07l-.92.92-.31.05c1.69.16,1.68-2.49,0-2.64Z"/><path d="M305.58,207.14a50.1,50.1,0,0,0,5-10.29c1.61-4.08,3.06-8.22,4.65-12.31a54,54,0,0,1,5-10.44,2.8,2.8,0,0,0,.24-.36c0,.14-.35.21-.15.17-.15,0-.2.12-.38.12l-.2,0c-.19-.09-.21-.1-.08,0s.53.51.68.71a32.31,32.31,0,0,1,2.16,3.62c.85,1.54,1.68,3.1,2.66,4.56a7.1,7.1,0,0,0,3,2.84l-.93-1.62c-.4,2.23-.9,4.46-1.11,6.72a31.51,31.51,0,0,0,.28,6.65c.1.88,1.08,1.78,2,1.14,1.56-1.12,3.13.59,3.6,2a25.79,25.79,0,0,1,.77,6.38c.21,3.61.21,7.21.54,10.81.15,1.68,2.8,1.7,2.64,0-.42-4.57-.34-9.17-.75-13.75-.22-2.38-.44-5.1-2.22-6.9-1.52-1.52-4.08-2.15-5.92-.84l2,1.14a32,32,0,0,1-.3-6.41c.17-2.11.67-4.19,1-6.26a1.38,1.38,0,0,0-.92-1.63c.21.09-.23-.18-.23-.18a4.68,4.68,0,0,1-.53-.56,14.26,14.26,0,0,1-1.22-1.74c-.87-1.4-1.63-2.86-2.43-4.29-.89-1.6-2.64-5.64-5.09-4.92-1.34.4-2.14,2.4-2.75,3.52a61.18,61.18,0,0,0-2.62,5.63c-1.78,4.26-3.3,8.63-4.94,12.94s-3.2,8.55-5.77,12.25c-1,1.4,1.32,2.72,2.28,1.33Z"/><path d="M373.78,432.4l5.16-20.28,8.24-32.33,1.89-7.43-2.59-.35,1.25,18,2,28.65.46,6.58c.08,1.18,1.86,2,2.46.67l8.15-17.47,1.15-2.47-2.41-.31,2.59,15,4.11,23.84.95,5.49.13-1-6.56,13.46L390.23,484l-2.4,4.93c-.75,1.52,1.53,2.86,2.28,1.33l6.74-13.84,10.53-21.59c.73-1.49,1.57-3,2.2-4.51a2.87,2.87,0,0,0,0-1.74l-.48-2.8L405.19,423l-2-11.51c-.36-2.09-.64-4.2-1.08-6.27l-.06-.3a1.33,1.33,0,0,0-2.41-.32l-8.15,17.46-1.15,2.47,2.46.67-1.25-18-2-28.65-.46-6.58a1.32,1.32,0,0,0-2.59-.35l-5.17,20.28-8.24,32.32-1.89,7.43a1.32,1.32,0,0,0,2.55.71Z"/><path d="M170.91,96.54l-5.16,19.64-8.22,31.3-1.89,7.17a1.32,1.32,0,0,0,2.55.7l5.16-19.64,8.22-31.3,1.89-7.17a1.32,1.32,0,0,0-2.55-.7Z"/><path d="M105.75,173.07l.58-8.06,1.39-19.23,1.67-23.26,1.46-20.2c.23-3.24.69-6.55.7-9.79,0,0,0-.1,0-.15.12-1.69-2.52-1.68-2.64,0l-.58,8.06L107,119.68l-1.68,23.25-1.45,20.21c-.24,3.23-.7,6.54-.71,9.79,0,0,0,.09,0,.14-.12,1.7,2.52,1.69,2.64,0Z"/><path d="M237.64,95.41l3-17.7.29-1.8a3.5,3.5,0,0,0,.17-1c0-.14.23-.45-.14.14s-.16.25,0,.17a7.09,7.09,0,0,0,.77-.78l7.21-7.36L254.79,61l-2.25-.93.39,26.83.06,3.8A1.34,1.34,0,0,0,254.66,92l13-3.68-1.63-.92,9.18,22.81c3.25,8,6.38,16.16,9.74,24.17a39.67,39.67,0,0,0,2.94,5l3.8,6.29c.88,1.45,3.17.13,2.28-1.33L290.82,139l-2.22-3.68a11.4,11.4,0,0,0-1.17-1.93c-.07-.08.19.47.08.19l-.15-.36-.55-1.37-2-5L272.11,95.37l-3.5-8.69a1.34,1.34,0,0,0-1.62-.92l-13,3.67,1.67,1.27-.4-26.83,0-3.8a1.34,1.34,0,0,0-2.26-.93L240.29,72a13.34,13.34,0,0,0-1.52,1.58,5.56,5.56,0,0,0-.54,2.25l-1.76,10.57-1.38,8.28c-.28,1.66,2.27,2.38,2.55.7Z"/><polygon points="222.59 57.2 223.75 124.97 201.94 142.1 188.18 124.89 220.3 6.72 222.59 57.2"/><path d="M201.87,142.71,187.7,125l.05-.22L220.61,3.9,223,57.2l1.15,68Zm-13.21-17.92L202,141.48l21.28-16.72-1.15-67.54L220,9.55Z"/><polygon points="109.02 95.06 125.03 262.79 105.87 286.36 92.39 237.6 109.02 95.06"/><path d="M105.67,287.3,91.94,237.64v-.09L109.07,90.89l16.42,172-.12.14ZM92.83,237.57l13.23,47.85,18.51-22.77L109,99.23Z"/><path d="M110.29,295.47l-8.72-32.85-13.9-52.36-3.19-12c-.41-1.56-2.41-1-2.59.35L80,213.09,75.91,244l-3.74,28.45-1,7.42c0,.24-.09.5-.1.74,0,.58,0-.45.14-.44a14.73,14.73,0,0,0-1.56,2.57l-14.12,23.2-.37.6,1.81-.47L36.08,292.33a1.34,1.34,0,0,0-2,1.14L30.2,324.15c-.54,4.25-1.34,8.56-1.62,12.83a51,51,0,0,0,.28,6.18l2,38,.87,16.49c.1,2,.12,4,.4,6l4.64,32.46.14,1,.14-1L26.31,461.43,21.63,472.5a3.35,3.35,0,0,0,.06,2.6q1.1,3.79,2,7.63C25.85,491.1,28,499.88,28,508.57a1.32,1.32,0,0,0,2.64,0c.07-7.48-1.58-15-3.27-22.27-1-4.4-2.14-8.79-3.44-13.11l-.13,1,15.16-35.82a4.36,4.36,0,0,0,.55-2c0-.49-.14-1-.21-1.48l-1.43-10L34.69,403c0-.24-.07-.48-.1-.72s0,.53,0,.17c0-.51,0-1-.08-1.53l-.38-7.27-1.29-24.55-1.26-24c-.15-2.87-.67-5.95-.31-8.82l5.28-41.68.15-1.18-2,1.14,20.92,13.73a1.33,1.33,0,0,0,1.8-.47l13-21.34,2.62-4.31a3.84,3.84,0,0,0,.65-1.56c.3-1.8.48-3.62.72-5.43L78,248.39l4.19-31.8,1.56-11.82a39.38,39.38,0,0,0,.77-5.9,2.19,2.19,0,0,1,0-.27l-2.59.35,8.72,32.85,13.9,52.36,3.19,12a1.32,1.32,0,0,0,2.54-.7Z"/><polygon points="81.56 201.66 43.7 298.02 56.32 307.2 72.02 281.77 81.56 201.66"/><path d="M56.45,307.84l-13.28-9.66.12-.32L82.4,198.31,72.4,282Zm-12.21-10,12,8.7,15.4-24.95L80.72,205Z"/><polygon points="34.46 295.91 29.86 336.74 32.54 409.78 25.66 426.61 0.8 410.93 5.39 449.64 44.2 558.54 47.65 459.88 49.37 385.31 57.4 386.54 34.46 295.91"/><path d="M44.56,560.86,5,449.69.25,410.06,25.45,426,32.1,409.7l-2.68-72.94,4.87-43.3L58,387.07l-8.2-1.25-1.71,74.07ZM5.83,449.54l38,106.68,3.36-96.36,1.74-75.06,7.87,1.2L34.62,298.36,30.3,336.79,33,409.86l-7.11,17.4L1.35,411.79Z"/><path d="M110.82,427.7l-.34.09c-13,3.81-9.51,22.39-8.84,33.14.86,13.74-.73,27.89-1.53,41.68-1.29,22.22,4.9,40.81,30.3,43.07,11.28,1,47.73-3.18,46.57-20.86-1.4-21.31-38.37,5.81-49.72-10-8.21-11.42-2.37-35.6-.6-48.06C128.32,455.12,132.13,421.78,110.82,427.7Z"/><path d="M110.46,426.42c-13.72,3.92-11.19,21.45-10.3,32.34.81,9.93.27,19.9-.42,29.82-.6,8.62-1.63,17.34-.82,26,.58,6.2,2,12.44,5.25,17.83a28.51,28.51,0,0,0,13.62,11.69c10.5,4.39,22.55,3.42,33.46,1.28a59.24,59.24,0,0,0,16.57-5.48c4.28-2.28,8.42-5.63,9.93-10.41,1.25-3.94.68-9.41-2.66-12.22s-7.92-2.54-11.86-2.06c-5.26.63-10.41,1.94-15.63,2.8-4.6.76-9.68,1.4-14.18-.16-5.22-1.8-7.44-7.15-8.41-12.19-1.41-7.37-.62-15.17.4-22.54,1.51-10.94,3.88-21.74,3.93-32.84,0-8.3-.88-22.12-11.09-24.29a16.58,16.58,0,0,0-7.79.45,1.32,1.32,0,0,0,.71,2.55c4.23-1.15,8.63-.85,11.45,2.76,2.7,3.46,3.51,8.35,3.87,12.64.83,9.92-.67,19.73-2.28,29.39a152.2,152.2,0,0,0-2.53,21.91c-.13,6.53.4,13.87,4.16,19.45,5.89,8.73,17.95,6.35,26.69,4.64,4.68-.91,9.42-2.11,14.21-2.19a12.67,12.67,0,0,1,5.16.77,5.65,5.65,0,0,1,3,3,11,11,0,0,1-2.13,11.52c-3.34,3.74-8.21,5.92-12.88,7.49a80.3,80.3,0,0,1-16.59,3.56,65.56,65.56,0,0,1-13.06.41c-6.49-.6-13.17-2.51-18.25-6.76a28.56,28.56,0,0,1-8.82-14.2,60.24,60.24,0,0,1-1.83-19.2c.43-10.12,1.54-20.2,1.8-30.34.11-4.73.08-9.48-.28-14.2-.23-3-.53-5.91-.7-8.87-.32-5.66-.53-12.31,2.65-17.29a10.8,10.8,0,0,1,6.35-4.52A1.32,1.32,0,0,0,110.46,426.42Z"/><path d="M142.54,419.22c-1.38,4.28-1.37,12.09-1.46,17.59-.06,4.32-.15,8.63-.31,12.95-.38,10.16-.76,20.32-1.05,30.48-.09,3.23-.17,6.54.92,9.6,2.22,6.25,9,10.2,15.83,11.18s13.75-.47,20.46-2c5.11-1.18,16.22-2.5,20.23-5.75,2.46-2,4.39-4.94,4.06-8-.5-4.63-5.79-7.46-10.64-7.91s-17.82,3.76-22.65,3.16-7.73-6.94-7.72-11.6c0-5.63,7.07-8.62,12.94-9s18.32.24,22.69-3.52c5-4.26,3.47-13.33-2.61-15.93-5.07-2.17-16.71-.05-22.24.41s-12.63-2.62-11.89-7.89c.4-2.81,2.22-6.48,5-7.36s7.39-1.13,10.35-1.42c4-.4,13.15.36,16.07-2.22s4.42-6.93,2.69-10.37c-2.74-5.45-16.33-6.22-22.59-5.39-7.27,1-15.19.34-21.41,4.59A15.91,15.91,0,0,0,142.54,419.22Z"/><path d="M141.27,418.87a39.85,39.85,0,0,0-1.34,10.26c-.17,4-.16,8-.24,12-.2,9.55-.65,19.11-1,28.66-.16,4.62-.46,9.28-.37,13.9a17.63,17.63,0,0,0,3.5,11c4.73,6,12.74,8.15,20.06,8a70,70,0,0,0,13.72-2c3-.67,6-1.22,9.05-1.81,6.1-1.2,13.24-2.48,16.6-8.36a8.43,8.43,0,0,0-.67-9.74,14.18,14.18,0,0,0-8.77-4.56,23.32,23.32,0,0,0-7.63.47c-3.11.56-6.18,1.27-9.29,1.85-2.25.42-5,1.15-7.29.6-2.86-.67-4.61-3.64-5.45-6.24s-1.1-5.66,1.07-7.84,5.5-3.24,8.51-3.64a81.52,81.52,0,0,1,8.42-.35,65.08,65.08,0,0,0,9.66-.88c2.6-.48,5.37-1.26,7.31-3.16a10.43,10.43,0,0,0,3-7.66,11.72,11.72,0,0,0-3.14-7.81,11.48,11.48,0,0,0-7.57-3.2c-6.28-.59-12.47.89-18.7,1.27a12.47,12.47,0,0,1-8.49-2.4,4.65,4.65,0,0,1-1.84-3.06,8,8,0,0,1,1.16-4.34,5.59,5.59,0,0,1,3.35-3,31,31,0,0,1,5.41-.88c3-.3,5.91-.5,8.9-.55a38.22,38.22,0,0,0,9-.83,9.55,9.55,0,0,0,6.36-6,8.68,8.68,0,0,0-1.17-9c-1.71-1.91-4.33-2.92-6.74-3.58a45.32,45.32,0,0,0-17.05-.92c-3.93.45-7.9.54-11.8,1.2a23.3,23.3,0,0,0-10.75,4.57,17.08,17.08,0,0,0-5.78,8.05c-.54,1.62,2,2.31,2.55.71a15.18,15.18,0,0,1,6.4-7.81,23.9,23.9,0,0,1,10.59-3.29c3.53-.4,7.09-.64,10.64-1a44.2,44.2,0,0,1,8,0,30.74,30.74,0,0,1,8.34,1.67c2.07.76,4.12,1.95,4.71,4.21a7.78,7.78,0,0,1-3.34,8.08c-2.28,1.27-5.42,1.21-7.94,1.29-2.69.09-5.36.1-8,.34-1.82.16-3.64.32-5.45.56a16.23,16.23,0,0,0-4.87,1.18c-2.76,1.36-4.46,4.71-5,7.63a7.2,7.2,0,0,0,3.16,7.19,15.1,15.1,0,0,0,8.43,2.67,59.76,59.76,0,0,0,8.33-.8,70.07,70.07,0,0,1,9.82-.59c2.59.07,5.29.38,7.24,2.25,3.54,3.39,3.77,10.37-.85,13-2.35,1.32-5.27,1.68-7.91,1.95-3,.3-6.06.37-9.09.44-5.6.13-12.24.62-16.13,5.26s-1.61,12.33,2.53,16a8.91,8.91,0,0,0,7,2.09,69.59,69.59,0,0,0,8.49-1.41c5.32-1.09,11.05-2.94,16.26-.51,2.73,1.28,5.32,3.74,4.71,7-.58,3.1-3.2,5.53-6,6.72-5.39,2.3-11.41,2.79-17.07,4.05-8.15,1.81-16.88,3.79-25,.78a18,18,0,0,1-8-5.66c-2.44-3.19-2.8-7.06-2.74-10.95.16-9.18.58-18.36.92-27.53.31-8.4.3-16.81.65-25.2a37,37,0,0,1,1.25-9.55C144.32,418,141.78,417.25,141.27,418.87Z"/><path d="M202.94,402.84h.15c3.5.14,11-2.47,14.42-1.57,8.6,2.3,3.22,28.58,2.11,36.31q-3.28,23-4.6,46.2c-.78,13.82-.24,20.91,14,25.33,8.37,2.61,12.55-2.79,14.36-10.27,1.23-5,.86-10.29.48-15.45q-1.55-21.06-3.08-42.14c-.59-8.09-4.62-25.49,2.51-31.77,4.2-3.7,12-1.94,17.31-1.94,2.7,0,5.58-.05,7.83-1.56,15.86-10.69-17.61-22.21-24-23.75a74.27,74.27,0,0,0-41.1,1.78c-4.76,1.63-11.35,3.57-11.26,9.78C192.07,399.27,198.1,402.62,202.94,402.84Z"/><path d="M202.94,404.16c3,.12,6.12-.85,9.09-1.36a15.55,15.55,0,0,1,4.56-.36,3.06,3.06,0,0,1,1.83.79,8.69,8.69,0,0,1,2.1,4.75,34.94,34.94,0,0,1,.44,7.44,122.14,122.14,0,0,1-1.74,16.29c-1.07,6.82-2,13.65-2.81,20.5q-1.69,14.67-2.58,29.4c-.35,5.74-1.11,12.16.88,17.71,1.86,5.21,6.28,8.23,11.27,10.15,3.1,1.19,6.48,2.17,9.78,1.27a11.12,11.12,0,0,0,6.42-5.24c4.4-7.41,3.36-16.56,2.77-24.74l-2.2-30.07c-.29-4-.48-8-.95-12-.34-3-.76-6-1.05-9a58.46,58.46,0,0,1-.26-9.63,17,17,0,0,1,2.19-7.89c1.68-2.65,4.56-3.53,7.57-3.69,3.44-.18,6.87.36,10.31.38a20.65,20.65,0,0,0,6-.59,11.63,11.63,0,0,0,4.2-2.42,8.46,8.46,0,0,0,3.11-4.9c.64-4-2.62-7.22-5.53-9.43a57.1,57.1,0,0,0-12.89-6.9A77.47,77.47,0,0,0,245,381a75.32,75.32,0,0,0-26.08-1.77,73.92,73.92,0,0,0-13.49,2.69,48.15,48.15,0,0,0-9.24,3.5c-2.61,1.44-4.85,3.67-5.34,6.72a9.34,9.34,0,0,0,3.5,8.72,15.06,15.06,0,0,0,8.64,3.28c1.7.09,1.7-2.55,0-2.64a11.75,11.75,0,0,1-8-3.66,6.13,6.13,0,0,1-.48-7.75c1.71-2.22,4.66-3.28,7.21-4.17a82,82,0,0,1,11.59-3.22,74,74,0,0,1,50.87,9.15,25.16,25.16,0,0,1,4.89,3.76,9.53,9.53,0,0,1,1.51,1.92,5.19,5.19,0,0,1,.71,1.84,4.55,4.55,0,0,1-1.47,3.73,10.33,10.33,0,0,1-3,2.24,13.54,13.54,0,0,1-5.72.86c-6.08,0-13.95-2.14-18.94,2.48-4.18,3.87-4.53,10.54-4.38,15.85.17,5.75,1.26,11.41,1.68,17.14q1.06,14.49,2.12,29c.35,4.81.72,9.61,1.05,14.41.31,4.57.51,9.23-.62,13.71-.69,2.76-1.77,5.64-3.87,7.65a8,8,0,0,1-7.53,1.75c-4.87-1.1-10.4-3.6-12.78-8.26s-1.79-10.21-1.54-15.09c.49-9.38,1.27-18.75,2.27-28.09.79-7.41,1.69-14.83,2.88-22.19.82-5.08,1.6-10.16,2-15.29.35-4.7.66-10.05-1-14.55a7.68,7.68,0,0,0-3.29-4.23c-2.32-1.25-5.28-.66-7.74-.23-2.74.47-5.59,1.38-8.39,1.27C201.24,401.44,201.25,404.08,202.94,404.16Z"/><path d="M287,391.86a9.06,9.06,0,0,0-2.4,5.33c-.05,2.84,1.07,5.59,1.18,8.43a12.1,12.1,0,0,1-6,10.73c-1.59.91-3.53,1.6-4.23,3.29-.9,2.17,1.08,4.67,3.37,5.19s4.65-.36,6.8-1.3c5.53-2.41,10.95-5.54,14.61-10.34s5.24-11.55,2.65-17a11.85,11.85,0,0,0-11.49-6.51A8.79,8.79,0,0,0,287,391.86Z"/><path d="M286,390.93a11.1,11.1,0,0,0-2.58,4.75,14.09,14.09,0,0,0,.34,5.88,16.72,16.72,0,0,1,.53,6,11.07,11.07,0,0,1-2,4.81,11.25,11.25,0,0,1-4,3.27c-1.43.75-3,1.56-3.76,3.05-1.65,3.09.92,6.66,4,7.4,3.89.93,8.08-1.41,11.43-3.14a35.8,35.8,0,0,0,9.38-6.66c5.06-5.17,8-13.17,5-20.15a13.26,13.26,0,0,0-8.32-7.31c-3.4-1-7.46-.54-10,2.09-1.19,1.21.68,3.08,1.87,1.86,4.13-4.19,11.37-.76,13.73,3.65,3,5.63.61,12.75-3.38,17.21a30.42,30.42,0,0,1-7.82,6.08c-1.43.81-2.89,1.54-4.39,2.22a15.34,15.34,0,0,1-5.2,1.69,3.94,3.94,0,0,1-3.74-1.58,2.08,2.08,0,0,1,.65-3.05c1.14-.84,2.51-1.31,3.67-2.14a13.86,13.86,0,0,0,3.24-3.29,13.53,13.53,0,0,0,2.21-9.93,47.94,47.94,0,0,1-1-6,7.32,7.32,0,0,1,2-4.81C289,391.52,287.17,389.65,286,390.93Z"/><path d="M142.69,565.14a124,124,0,0,0,50.22-22.09c2.8-2,6-4.27,9.37-3.63,2.87.53,4.95,3,6.55,5.44a49,49,0,0,1,7.5,19.78c.69,4.78.55,10.06-2.41,13.88-1.47,1.91-4.3,3.9-6.8,3.68a8.16,8.16,0,0,1-4.33-1.9c-2.51-2-4.13-4.9-6.29-7.29-5.14-5.68-14.38-4.41-20.8-1.71a39.18,39.18,0,0,0-21.87,24.47c-4.15,14.47,3.88,27.16,16,34.75,3.43,2.16,10.91,5.66,14.93,5.15,6.73-.84,11-15.85,6.14-21.71-3.06-3.67-15.34-1.64-14.85-8.2.24-3,3.89-4.38,6.88-5l9.1-1.9c6.66-1.39,14.93-2.21,19,3.27,2.14,2.9,2.33,6.77,2.32,10.38a173.82,173.82,0,0,1-1.53,22.34c-1.07,8-3.19,16.8-9.78,21.53-9.22,6.63-22.09,2.18-32-3.28-12.17-6.68-23.83-14.78-32.4-25.7s-13.83-25-12-38.73c1.22-9.35,7.68-21.14,16.81-23.49"/><path d="M143,566.42a129.57,129.57,0,0,0,27.47-8.73A121.65,121.65,0,0,0,183.26,551c4.2-2.52,8.11-5.41,12.17-8.12,2-1.31,4.37-2.72,6.83-2.13,2.21.52,3.82,2.41,5.06,4.2a46.87,46.87,0,0,1,6.35,13.59c1.3,4.54,2.33,9.69,1.32,14.39-.82,3.8-4.35,9.18-9,7.7s-6.38-6.95-9.92-9.81a16,16,0,0,0-11.06-3.1c-8.49.48-16.48,5-22.4,10.88-6.19,6.18-10.74,14.58-11.21,23.43-.45,8.4,3.2,16.35,8.86,22.41a42.69,42.69,0,0,0,9.71,7.74,38.17,38.17,0,0,0,10.88,4.48c3.13.68,5.93.37,8.29-1.92a17.58,17.58,0,0,0,4.41-8.31,18.86,18.86,0,0,0,.12-9.75,7.83,7.83,0,0,0-5.26-5.64c-2.66-.89-5.49-1.07-8.15-2a5,5,0,0,1-2.6-1.61,2.66,2.66,0,0,1,.47-3.3c1.3-1.3,3.34-1.78,5.07-2.15,2.62-.56,5.24-1.09,7.86-1.64,4.05-.84,8.35-1.73,12.48-1a9.19,9.19,0,0,1,8,7.5,34.08,34.08,0,0,1,.39,7.35q-.06,4.31-.33,8.61a131.15,131.15,0,0,1-1.74,15.55,33.81,33.81,0,0,1-4.31,12.23,16.37,16.37,0,0,1-9.92,7.22c-4.4,1.08-9,.41-13.32-.85a62.74,62.74,0,0,1-12.7-5.58,147.57,147.57,0,0,1-12.67-7.86c-8-5.59-15.4-12.3-20.9-20.41-9.85-14.52-14.39-35.85-2.25-50.52a17.82,17.82,0,0,1,8.87-6.18,1.32,1.32,0,0,0-.7-2.54c-8.08,2.16-13.35,10.11-16,17.56-3.16,8.78-2.53,18.66.25,27.46,6.2,19.61,22.41,33.42,39.68,43.39,8,4.64,17.33,9.39,26.91,8.64a19.32,19.32,0,0,0,12-5.18,25.54,25.54,0,0,0,6.36-11.2,76.79,76.79,0,0,0,2.53-14.43q.92-8.68,1-17.42c0-4.53-.33-9.55-3.87-12.84-3-2.83-7.33-3.51-11.33-3.36-4.79.19-9.49,1.42-14.16,2.39-3.63.76-9.08,1.48-10.34,5.7-.93,3.08,1.07,5.55,3.78,6.67s5.56,1.3,8.31,2.08a5.74,5.74,0,0,1,3,1.52,8.1,8.1,0,0,1,1.52,3.71,18.18,18.18,0,0,1-1.26,9.77c-.92,2.28-2.55,5.18-5.11,5.89a9.53,9.53,0,0,1-4.9-.49,37,37,0,0,1-5.77-2.24c-7.44-3.57-14.11-9.4-17.75-16.89-4-8.18-3-17.4,1.21-25.27A37.48,37.48,0,0,1,177.66,572c3.77-1.34,8-2.15,12-1.29a11,11,0,0,1,5.27,2.63,56.26,56.26,0,0,1,4.43,5.42,13.56,13.56,0,0,0,5.8,4.41,7.64,7.64,0,0,0,6.71-1c4-2.58,5.83-7.09,6.09-11.74a40.14,40.14,0,0,0-2.44-14.75A43.94,43.94,0,0,0,208.36,542a10.47,10.47,0,0,0-5.4-3.77,9.92,9.92,0,0,0-7.08,1.31,73.59,73.59,0,0,0-6.44,4.37q-3.08,2.11-6.25,4.08A120.16,120.16,0,0,1,156.6,560.2a137.42,137.42,0,0,1-14.26,3.67c-1.67.34-1,2.89.7,2.55Z"/><path d="M280.38,553.64a34.71,34.71,0,0,1-4-2c-6.55-3.87-10.47-9-17-12.94s-16.83-2.48-21.42,3.83c-10.77,14.8-12.61,45.5-13,65.39-.2,10.4-1.54,24.09,1.53,34s5.9,16.14,16.06,18.36c8.65,1.88,18-2.06,25.62-6.5,27.68-16.09,41.85-47.31,43.65-78.36.22-3.68.21-7.58-1.58-10.8-3-5.39-9.86-7.11-16-7.79C289.07,556.25,284.76,555.51,280.38,553.64Zm-1.29,62.43c-4.34,6.3-9.59,11.84-16.61,15.75-3.5,1.95-7.73,3.32-11.49,1.93-5.52-2-7.47-8.78-8-14.64-1.15-12,.33-24,2.11-35.93.58-3.89,1.25-7.9,3.4-11.19,6.92-10.61,16.3-1,23.74,2.69,5.42,2.72,14.45,2,17.91,7.72,3.83,6.34,0,13.66-2.9,19.5A119.51,119.51,0,0,1,279.09,616.07Z"/><path d="M281.05,552.5a39.33,39.33,0,0,1-8.91-5.46c-2.47-2-4.79-4.15-7.28-6.12a27.74,27.74,0,0,0-7.56-4.7,18.47,18.47,0,0,0-7.3-1c-5,.28-10,2.38-13.09,6.49a46.28,46.28,0,0,0-6.32,12.82c-3.63,10.63-5.09,22-6,33.12-.43,5.39-.7,10.79-.85,16.2-.17,5.83-.41,11.66-.53,17.49-.12,6.28,0,12.71,1.44,18.85a59.68,59.68,0,0,0,2.5,7.74,29.13,29.13,0,0,0,3.08,6,18.73,18.73,0,0,0,11.2,7.39c6.49,1.6,13.16.18,19.21-2.34a78.2,78.2,0,0,0,28.61-21.1,95.82,95.82,0,0,0,17.11-29.46,113,113,0,0,0,6.83-34,21.33,21.33,0,0,0-1.26-9.41,13.4,13.4,0,0,0-5.4-6c-5.1-3.12-11.07-3.19-16.79-4.14a39.72,39.72,0,0,1-9-2.53,1.33,1.33,0,0,0-1.62.93,1.35,1.35,0,0,0,.92,1.62,39.66,39.66,0,0,0,8.82,2.5c2.91.49,5.87.67,8.77,1.23,5,1,10.48,3.07,12.22,8.32,1,2.92.81,6.07.62,9.1-.17,2.71-.43,5.43-.8,8.13a113.4,113.4,0,0,1-3.44,16.23,98,98,0,0,1-13.94,29.36A79.55,79.55,0,0,1,268.52,652c-5.41,3.25-11.3,6.13-17.6,7.11-5.12.8-10.87,0-15.15-3.13-3.43-2.49-5.28-6.5-6.67-10.38a55.18,55.18,0,0,1-3.19-16.48c-.26-6.09.09-12.18.29-18.27.17-5,.24-10,.49-15a182.75,182.75,0,0,1,4-32.13,72.92,72.92,0,0,1,4.6-14.08c1.89-4.08,4.16-8.14,8.32-10.21A16.65,16.65,0,0,1,257.2,539a31.23,31.23,0,0,1,7.23,5c2.33,1.95,4.58,4,7,5.86a39.3,39.3,0,0,0,8.28,5C281.26,555.45,282.6,553.17,281.05,552.5Z"/><path d="M278,615.4a51,51,0,0,1-12.28,12.85c-4.41,3.12-11.27,7.09-16.35,3.08-4-3.18-4.82-9.17-5.18-13.93a119.36,119.36,0,0,1,.6-21.63c.38-3.6.87-7.17,1.39-10.75a47,47,0,0,1,1.94-9.24c.94-2.6,2.63-5.32,5.15-6.64a7.61,7.61,0,0,1,5.94-.13c4.56,1.48,8.23,4.8,12.5,6.87s9,2,13.28,3.9a8.58,8.58,0,0,1,4.89,5,13.59,13.59,0,0,1-.34,8.79,59.68,59.68,0,0,1-3.77,8.4c-1.58,3.11-3.22,6.19-5,9.17-.88,1.45-1.79,2.87-2.75,4.26s1.33,2.73,2.28,1.33a114.82,114.82,0,0,0,10.48-19c2.45-5.63,4-13.06-1-17.89-3.77-3.67-9.46-3.9-14.25-5.29-4.94-1.44-8.85-5.15-13.52-7.22a13.29,13.29,0,0,0-7.16-1.37,10.23,10.23,0,0,0-6.6,4.19,21.43,21.43,0,0,0-3.83,9.25c-.71,3.65-1.16,7.37-1.65,11.06A141.8,141.8,0,0,0,241.31,614c.21,5.81.63,12.45,4.3,17.26a10.8,10.8,0,0,0,7.17,4.29c3.38.44,6.74-.67,9.7-2.21a47.27,47.27,0,0,0,14.93-12.77c1-1.24,1.92-2.52,2.82-3.82S278.92,614,278,615.4Z"/><path d="M353.45,506.62C352.3,521.54,347.33,547,369.13,551c-22.59,2.56-21.8,14.54-30.59,45.89,1.14-14.15,8.22-39.77-11.86-49.33C344.85,546.59,348.48,531.48,353.45,506.62Z"/><path d="M352.13,506.62c-.54,7-1.52,13.89-1.25,20.88.25,6.8,1.66,14.12,6.62,19.13a21.26,21.26,0,0,0,11.28,5.63l.35-2.6c-6.86.79-13.94,2.63-18.55,8.15-4.76,5.71-6.62,13.45-8.49,20.48-1.61,6.08-3.13,12.18-4.83,18.23l2.6.35c.56-6.85,1.86-13.63,2.1-20.52.24-7.27-.53-15.05-4.59-21.3a24.55,24.55,0,0,0-10-8.65l-.67,2.46c6.32-.35,12.26-2.59,16.38-7.55,4.49-5.41,6.64-12.46,8.35-19.16,1.28-5,2.3-10.1,3.31-15.17.34-1.66-2.21-2.37-2.54-.71-1.61,8-3.11,16.23-6,23.92-2,5.31-4.92,10.61-10,13.49a21.7,21.7,0,0,1-9.53,2.54c-1.2.07-1.93,1.85-.66,2.46a22.06,22.06,0,0,1,8.66,7.09,25.23,25.23,0,0,1,3.87,9.35c1.45,7,.76,14.25-.09,21.24-.43,3.5-.95,7-1.24,10.51-.13,1.51,2.2,1.75,2.59.35,2.61-9.31,4.54-18.89,7.73-28,2-5.62,4.8-11,10.25-13.83a32.34,32.34,0,0,1,11.34-3.06c1.34-.15,1.95-2.29.35-2.59a19.1,19.1,0,0,1-9.56-4.41,18.1,18.1,0,0,1-4.78-7.7c-2.13-6.48-1.85-13.56-1.33-20.27.27-3.57.68-7.13,1-10.71C354.9,504.93,352.26,504.94,352.13,506.62Z"/><path d="M64.64,570.2c21.59,2.26,22.56,13,29.06,42.45-1.91-34.42-1.53-39.87,12.87-51-18.41,1.11-20.8-14.18-26.25-44.58C83.38,541.14,82.23,566,64.64,570.2Z"/><path d="M64.64,571.52c6,.64,12.36,2.15,16.57,6.84,4.35,4.87,6,11.85,7.5,18,1.35,5.51,2.5,11.07,3.72,16.62a1.32,1.32,0,0,0,2.59-.35c-.53-9.6-1.42-19.42-.5-29,.51-5.33,2-10.28,5.51-14.3a50.55,50.55,0,0,1,7.48-6.76c.91-.71.14-2.32-.94-2.26a19.51,19.51,0,0,1-8.83-1.2,14,14,0,0,1-5.63-4.57,30.14,30.14,0,0,1-4.09-8.3,99,99,0,0,1-3.16-12.12c-1.22-5.78-2.23-11.61-3.27-17.43-.26-1.44-2.78-1.13-2.59.36a125.26,125.26,0,0,1,1,26.6c-.6,6.85-2.1,14.5-6.74,19.85a17.12,17.12,0,0,1-9,5.43c-1.65.4-1,3,.7,2.54,16.4-4,18.25-24.3,17.94-38.22a159.52,159.52,0,0,0-1.29-16.2l-2.6.35c1.75,9.72,3.15,19.7,6.28,29.1,1.93,5.77,4.88,11.88,10.63,14.67A21.36,21.36,0,0,0,106.57,563l-.93-2.26c-4.52,3.51-9,7.43-11.36,12.77-2.74,6.24-2.79,13.36-2.71,20,.09,6.38.46,12.76.81,19.13l2.6-.35c-1.15-5.19-2.23-10.4-3.46-15.56A89.25,89.25,0,0,0,88.2,585.4c-2.23-5.79-5.71-10.9-11.49-13.57a38,38,0,0,0-12.07-3C63,568.7,63,571.34,64.64,571.52Z"/><path d="M301.07,141.42c19.84-22.57,55.45-29,80.82-11.89C404.8,145,413.27,174.68,413.71,201c.61,35.93-13.33,70-26.55,102.68-6.86,17-13.78,34-17.93,51.89-4,17.18-5.79,35-3.21,52.49,4.84,32.76,21.74,63.09,22.15,96.61a96.24,96.24,0,0,1-.66,12.35c-.1.84,1.22.83,1.32,0,4.07-34.29-12.32-65.9-19.53-98.56a127.55,127.55,0,0,1-3.23-25.3,146.66,146.66,0,0,1,2.64-28.58c3.46-18.94,10.2-36.85,17.35-54.65,13.47-33.52,28.34-67.82,29-104.55.45-26.17-6.68-55.83-27.59-73.28-22.64-18.9-56.69-17.33-79.31.77a63.51,63.51,0,0,0-8,7.65c-.56.64.37,1.58.93.94Z"/><path d="M363.9,275.31c-1.34,2.67-2.88,5.25-4.09,8-.91,2.09-1.88,4.56-1.31,6.87s2.26,4.67,3.48,6.77c1,1.81,2.82,4.19,2.67,6.4-.07,1-1,1.54-1,2.51s1.24.84,1.32,0c0-.28.42-.66.6-1A3.34,3.34,0,0,0,366,303c-.17-2.91-2.25-5.65-3.66-8.09a32,32,0,0,1-2.35-4.49,6.58,6.58,0,0,1,.2-4.31c1.12-3.56,3.22-6.78,4.89-10.09.38-.76-.75-1.43-1.14-.67Z"/><path d="M378.54,278.32a77,77,0,0,1-1.23,11.53c-.25,1.44-.53,2.89-.74,4.34a13.48,13.48,0,0,0-.2,4.15c.28,1.53,1.41,2.74,2.25,4a42.49,42.49,0,0,1,3,5c1.28,2.62,2.1,5.61.22,8.14-.51.68.63,1.34,1.14.67,3-4.06.17-9.2-2.13-12.86-.85-1.37-1.85-2.65-2.69-4a5.54,5.54,0,0,1-.45-3.57c.26-2.37.76-4.7,1.15-7a73.86,73.86,0,0,0,1-10.38.66.66,0,0,0-1.32,0Z"/><path d="M362.58,275.77c-4.89.85-9.56,2.75-14.34,4-3.65,1-7.33,2.35-11.13,2.62a51.4,51.4,0,0,1-7.34-.12,17.05,17.05,0,0,0-5.14.23,27.1,27.1,0,0,0-5.07,1.88.67.67,0,0,0-.24.9c1.2,2.27,4,1.95,6.14,1.66.49-.07,1-.11,1.47-.15a.86.86,0,0,1,.42,0c-.16-.1-.16-.09-.24.23-.22,1,1.12,1.75,2,1.57,1.31-.28,2.14-1.64,3.44-2a12.47,12.47,0,0,1,2.8-.24c1-.05,2-.08,3.06-.1,4.21-.06,8.47.18,12.67-.27,3.11-.32,6.11-1.2,9.23-1.5.84-.07.84-1.4,0-1.32-2.6.25-5.1.86-7.67,1.29-3.82.64-7.75.45-11.61.46-1.95,0-3.9,0-5.85.13a8.38,8.38,0,0,0-4.44,1c-.51.33-1,.75-1.48,1.07a1.23,1.23,0,0,1-.55.2c-.45.06-.18,0-.12-.42a1.22,1.22,0,0,0-1.22-1.4c-2-.23-5.61,1.53-6.87-.86l-.23.9a18.08,18.08,0,0,1,9.35-1.95,52.88,52.88,0,0,0,7.34.15c3.66-.21,7.17-1.46,10.68-2.42,2.38-.64,4.74-1.36,7.1-2.08a71.37,71.37,0,0,1,8.23-2.21c.83-.14.48-1.41-.35-1.27Z"/><path d="M365.37,275.28c-.89,2.21-2.44,4.3-2.77,6.7a8.33,8.33,0,0,0,1.8,5.82c1.42,1.77,3.42,2,5.53,1.58s3.2-2,4.25-3.56a81.88,81.88,0,0,0,4.25-7.74c.38-.76-.76-1.43-1.14-.67-1.08,2.11-2.15,4.24-3.35,6.28a13.27,13.27,0,0,1-2.84,3.8,5.2,5.2,0,0,1-3.19.77,3.12,3.12,0,0,1-2.22-1,7,7,0,0,1-1.8-5,9.7,9.7,0,0,1,1.13-3.17c.57-1.15,1.15-2.28,1.62-3.46.31-.79-1-1.14-1.27-.35Z"/><path d="M378.79,289.38a70,70,0,0,0,5.67,7.28c.77.85,1.55,1.69,2.3,2.56a20.79,20.79,0,0,1,2.31,3.55A54.32,54.32,0,0,0,392,307.5c.63.91,2,2.09,2,3.27,0,1-.75,2,.41,2.66s1.62-.94,2.3-1.41c.45-.31,1.14,0,1.64.21a23.14,23.14,0,0,1,2.63,1.21c1.08.56,2.51,1.6,3.81,1.14a1.34,1.34,0,0,0,.89-1.75,2.65,2.65,0,0,0-1.06-1c-.77-.54-1.47-1.17-2.19-1.77a15.57,15.57,0,0,0-3.16-2.26c-.47-.22-.94-.45-1.44-.63a3.23,3.23,0,0,1-1.07-.42,7.84,7.84,0,0,1-1.09-1.83c-.47-.83-.91-1.67-1.35-2.52-.79-1.53-1.56-3.08-2.35-4.62-.89-1.7-1.9-3.33-2.82-5-1-1.88-1.94-3.84-2.91-5.75-.81-1.62-1.68-3.22-2.58-4.8a11,11,0,0,0-3-3.71c-.7-.5-1.36.65-.67,1.14A10,10,0,0,1,382.6,283c.7,1.26,1.39,2.53,2.06,3.81,1.57,3,3,6.06,4.73,9,1.58,2.72,2.89,5.59,4.37,8.37.33.61.66,1.22,1,1.83a8,8,0,0,0,1.14,1.83c.52.49,1.61.58,2.28.89a13.81,13.81,0,0,1,3,2c.63.53,1.26,1.06,1.91,1.58a15.62,15.62,0,0,1,1.31.95c0,.46-3.44-1.31-3.84-1.5a8.37,8.37,0,0,0-3.73-1.23c-.86.05-1.2.73-1.71,1.31-.28.33,0,.13,0-.13a3.44,3.44,0,0,0,.12-.64,2.77,2.77,0,0,0-.17-1.34,15.29,15.29,0,0,0-2-2.91c-1-1.38-1.81-2.83-2.64-4.29a29.12,29.12,0,0,0-2.24-3.62c-.71-.93-1.54-1.78-2.32-2.65a71.44,71.44,0,0,1-6-7.57c-.48-.7-1.62,0-1.14.67Z"/><path d="M362.92,322.38a43.29,43.29,0,0,0,14.79-2,8.22,8.22,0,0,0,4.44-2.87,10.71,10.71,0,0,0,1.28-5.78,7.14,7.14,0,0,0-1.92-5.18,9.19,9.19,0,0,0-5.37-2.47,14.86,14.86,0,0,0-6.68.69,19,19,0,0,0-5.7,3.4,71.51,71.51,0,0,0-5.8,5.34c-1.49,1.46-3.11,3.16-3.52,5.29s.35,4.31,1.06,6.18a20.46,20.46,0,0,0,3.31,5.75q3,3.62,6,7.22c1.89,2.28,3.69,4.67,5.69,6.84.91,1,3.06,2.12,4.06.59.73-1.11-.1-2.73-.56-3.79-1.05-2.44-1.68-5.07-2.55-7.59-.56-1.64-1.14-3.27-1.8-4.87a26,26,0,0,0-2.87-5.39,5.94,5.94,0,0,0-3.67-2.69c-.83-.12-1.19,1.15-.35,1.27,2.65.36,4.19,4,5.15,6.11a76,76,0,0,1,3.17,8.66c.55,1.74,1.07,3.49,1.78,5.17.37.85,1.39,3.38-.63,2.29a9.1,9.1,0,0,1-2.17-2.33c-.88-1.06-1.76-2.13-2.65-3.19l-5-6a42.3,42.3,0,0,1-4.17-5.36A20,20,0,0,1,356,322a6,6,0,0,1,1.15-5.53,42.14,42.14,0,0,1,4.17-4.28c3-2.92,6.39-5.84,10.65-6.61,3.55-.65,8.71,0,9.92,4.1a10.81,10.81,0,0,1-.25,6c-.64,2-2.36,2.87-4.23,3.52a42.27,42.27,0,0,1-14.44,1.91.66.66,0,0,0,0,1.32Z"/><path d="M362.87,277.23c5.35-.16,6.74-6.52,6.52-10.83a13.43,13.43,0,0,0-.62-3.56c-.27-.8-1.55-.46-1.27.35a14.35,14.35,0,0,1,.19,7.69c-.59,2.45-2,4.95-4.82,5a.66.66,0,0,0,0,1.32Z"/><path d="M374.14,269c-.13,2.41-.07,5.21,1.39,7.26a10.77,10.77,0,0,0,4.16,3.07c.75.39,1.42-.75.66-1.14a9.77,9.77,0,0,1-3.68-2.59c-1.34-1.86-1.32-4.41-1.21-6.6,0-.85-1.28-.85-1.32,0Z"/><path d="M366.86,305.22c-5.9.47-11.48,3.57-16.23,6.93s-8.46,7.5-12.34,11.63c-2.58,2.75-5.19,5.48-7.87,8.14a.66.66,0,0,0,.94.93c4.46-4.42,8.66-9.1,13.07-13.57a50.55,50.55,0,0,1,12.82-9.63,25.61,25.61,0,0,1,9.61-3.11c.84-.07.85-1.39,0-1.32Z"/><path d="M333.45,335.1c2.16-1,4.28-2,6.35-3.17a26.13,26.13,0,0,0,5.31-3.57c3.11-3,5-6.9,9.26-8.52.78-.3.44-1.58-.36-1.27a14.06,14.06,0,0,0-5.34,3.66c-1.36,1.48-2.52,3.13-3.89,4.59a22.54,22.54,0,0,1-5.33,3.79c-2.17,1.23-4.4,2.34-6.67,3.35-.77.35-.1,1.49.67,1.14Z"/><path d="M319.5,329.32c28.86,6.14,57.79,14.58,85.87,23.64,2,.65,6.9,2.63,3.22,5a6.92,6.92,0,0,1-3.11.85c-17.58,1.81-35.86-1.13-53-5a262.82,262.82,0,0,1-49.61-16.35" style="fill:#fff"/><path d="M319.33,330c27.37,5.84,54.31,13.57,81,22.07,2.49.79,5.27,1.38,7.56,2.72.52.3,1.52.88,1.39,1.61-.1.55-.87,1-1.3,1.24a8.13,8.13,0,0,1-2.88.62,118.78,118.78,0,0,1-20.4.13c-13.49-1-26.88-3.7-40-7a272.05,272.05,0,0,1-41.48-14.38c-.77-.33-1.45.8-.67,1.14a275.91,275.91,0,0,0,38.12,13.54,244.44,244.44,0,0,0,41.71,7.87,123.61,123.61,0,0,0,21.25.18c2.18-.18,6.05-.22,6.87-2.87.55-1.78-1.48-3-2.81-3.64a65.16,65.16,0,0,0-8.05-2.73q-5.22-1.67-10.46-3.27-10.6-3.29-21.28-6.34c-14.16-4-28.41-7.75-42.78-10.95-1.81-.41-3.62-.8-5.43-1.19-.83-.17-1.19,1.1-.35,1.28Z"/><path d="M381.24,250.73a11.06,11.06,0,0,0-3.41-1.72c-2.82-.79-6.75-1.38-9.52-.25a38.76,38.76,0,0,1-3.81,1.65c-2,.58-4.17.37-6.15,1-.85.28-1.64.7-2.49,1a32.8,32.8,0,0,1-5.17.85,31.13,31.13,0,0,0-5.57,1.7c-1.53.58-3.21,1.29-3.85,2.8a8,8,0,0,1-.8,2c-.6.73-1.72.87-2.34,1.59a2.36,2.36,0,0,0,.4,3.1,5.75,5.75,0,0,0,3.16,1.27,11,11,0,0,1,3.34.81c1.56.8,2.66,2.51,4.38,2.83,2,.37,4-1.24,5.91-.53.7.27,1.26.83,2,1,1.14.31,2.28-.34,3.39-.74,1.7-.6,3.6-.62,5.19-1.48a8.26,8.26,0,0,0,3.61-5,12.71,12.71,0,0,0,3.55-2.88q2.56-2.72,5.15-5.42c1.68.89,4.58,1.17,4.84-.53C383.26,252.26,382.18,251.38,381.24,250.73Zm-4.81,3.88a1.8,1.8,0,0,0-.64-2.62l1.53-1a2.23,2.23,0,0,0-.2,2.38,2.13,2.13,0,0,0,.67.67Z"/><path d="M381.57,250.16a16.92,16.92,0,0,0-9.24-2.69,10.75,10.75,0,0,0-4.52.8,20,20,0,0,1-5.61,1.89,17.53,17.53,0,0,0-5.17,1.08,21.11,21.11,0,0,1-5.71,1.28,27.05,27.05,0,0,0-6,1.67,10.68,10.68,0,0,0-3.66,1.91c-1.17,1.08-1.06,3-2.44,3.75-1.12.62-2.15,1.2-2.18,2.64-.09,3.76,4.47,3.53,6.92,4.32,1.59.51,2.56,1.89,4,2.68a5.29,5.29,0,0,0,4.13.24,6.41,6.41,0,0,1,2.52-.4c.85.13,1.44.76,2.23,1.06,1.7.64,3.29-.47,4.9-.89,1.78-.46,3.65-.61,5.18-1.73a9,9,0,0,0,2.88-4c.19-.48.23-.63.65-.9s.68-.45,1-.7a20.07,20.07,0,0,0,2.06-2l5.16-5.41-.8.1c1.44.72,4,1.41,5.28.08,1.63-1.64-.18-3.84-1.57-4.82-.69-.49-1.35.65-.66,1.14s2.51,2.39.88,3a4.63,4.63,0,0,1-3.27-.52.68.68,0,0,0-.8.1L373.78,258a24.69,24.69,0,0,1-3.57,3.44c-.44.31-1,.48-1.32.94-.43.65-.57,1.55-1,2.25a6,6,0,0,1-3.55,2.91c-1.53.47-3.09.65-4.6,1.24a3.26,3.26,0,0,1-2.72.26,11.16,11.16,0,0,0-1.71-.9c-1.32-.41-2.66.09-3.95.4-1.73.43-2.81-.09-4.12-1.2a8.26,8.26,0,0,0-3.5-1.95c-1.49-.34-3.32-.25-4.57-1.26a1.83,1.83,0,0,1-.67-2.23c.35-.58,1.21-.78,1.74-1.13,1.15-.75,1.11-1.84,1.7-2.94.71-1.33,2.4-1.87,3.71-2.37a28.43,28.43,0,0,1,5.19-1.55,38.22,38.22,0,0,0,5-.79,25.3,25.3,0,0,1,5-1.5,18,18,0,0,0,5-1c1.7-.71,3.22-1.63,5.1-1.79a15.62,15.62,0,0,1,10,2.46C381.61,251.78,382.27,250.64,381.57,250.16Z"/><path d="M376.9,255.07a2.45,2.45,0,0,0-.78-3.65v1.14l1.53-.95-.9-.9a2.74,2.74,0,0,0-.52,2,2.69,2.69,0,0,0,.35,1.09,2.89,2.89,0,0,0,.88.86l.16-1.21-1.37.52a.67.67,0,0,0-.46.81.66.66,0,0,0,.81.46l1.37-.52a.67.67,0,0,0,.47-.54.65.65,0,0,0-.32-.66l-.1-.08c.05.05.05,0,0,0l-.15-.14a.86.86,0,0,1-.13-.14c.11.12,0,0,0-.07l-.07-.15c.07.15,0-.06,0-.09s0-.1,0-.16a.36.36,0,0,0,0-.1c0,.09,0,.09,0,0s0-.25,0-.38,0-.07,0-.11,0,.09,0,0,0-.11,0-.16l.06-.2c.05-.15-.05.08,0,0a2.85,2.85,0,0,1,.23-.37.67.67,0,0,0-.1-.8.68.68,0,0,0-.8-.1l-1.53.95a.66.66,0,0,0,0,1.14l.15.1,0,0,.07.06a.8.8,0,0,1,.13.13l.06.07s0,0,0,0,.13.21.17.27a.36.36,0,0,0,0,.09l0,0s.05.14.06.17a1.16,1.16,0,0,1,0,.18c0,.07,0,.06,0,0a.28.28,0,0,0,0,.09v.22c0,.07,0,0,0-.05s0,.13,0,.16l0,.08c0,.07,0,.06,0,0l-.08.15c-.05.06,0,.05,0,0l-.06.07a.66.66,0,1,0,.94.93Z"/><path d="M370.46,443.83c-22.78-52.72-67.9-95.76-126.17-99.86-128.95-9.06-201.48,88.51-203,194-1,69.75,45.32,126.15,105.3,151.28.12-.12.23-.23.36-.34a3.7,3.7,0,0,1,1-1.13l.23-.18c.41-.38.82-.75,1.25-1.11a16.18,16.18,0,0,1,1.79-1.48l.61-.49A162.37,162.37,0,0,1,49.57,502.14L49,504.73c18.41-98.38,98.51-163.65,200.14-151,45.69,5.67,88.58,38.64,110.53,78.39,13.18,23.89,20.19,50.75,24.1,77.75C399,615.18,300.38,706.43,196.55,694.7a194.48,194.48,0,0,1-32-6.52h0c-.15.35-.32.69-.5,1l.05,0c-.79,1.64-1.49,3.33-2.29,5a2.88,2.88,0,0,1-.3.47c37.3,12,78.56,12.16,116.46-3.45,36-14.8,72.43-43.14,92.42-77C399.25,565.31,392.18,494.11,370.46,443.83Z"/><path d="M371.6,443.16c-9.55-22-22.94-42.49-40-59.39-16.67-16.46-36.95-29.36-59.48-36.08a143.09,143.09,0,0,0-35.85-5.47,215.43,215.43,0,0,0-36.35,1.67,182.41,182.41,0,0,0-61.79,19.53,172.6,172.6,0,0,0-47.3,37.23,191.45,191.45,0,0,0-32.4,50.74,219.54,219.54,0,0,0-16.34,58.84c-3,22.67-3,45.76,2.78,68a158.62,158.62,0,0,0,32,61.48,180.17,180.17,0,0,0,53.95,43.44c5.06,2.68,10.24,5.11,15.52,7.33a1.32,1.32,0,0,0,1.28-.34c1.71-1.64,3.35-3.24,5.22-4.73.86-.69.24-1.9-.58-2.21A163.29,163.29,0,0,1,84.91,635,161.84,161.84,0,0,1,50.84,502.49c.31-1.65-2.18-2.37-2.55-.7l-.56,2.58,2.55.71C55,480,64,455.63,77.67,434a174.22,174.22,0,0,1,49.57-51.53,169.63,169.63,0,0,1,66.91-26.52,185.75,185.75,0,0,1,38.56-2.27c14.15.61,28.08,2.67,41.49,7.31,27.76,9.61,52.34,28.16,70.52,51.09,20.5,25.88,31,57.79,36.5,90,2.34,13.81,3.45,27.64,2.3,41.63a150.78,150.78,0,0,1-8.07,37.59,166.22,166.22,0,0,1-41.06,63.48A177,177,0,0,1,269.49,685a165.43,165.43,0,0,1-79.21,7.57,204.48,204.48,0,0,1-25.42-5.64,1.35,1.35,0,0,0-1.62.92c-.12.24-.24.49-.37.73a1.35,1.35,0,0,0,.79,1.94l.05,0-.79-1.94a53.31,53.31,0,0,1-2.59,5.45,1.33,1.33,0,0,0,.79,1.94c28.55,9.13,59.27,11.34,88.69,5.26,28-5.78,54.12-19.34,76.63-36.73,21.2-16.38,40.36-37.13,51.34-61.82,10.51-23.61,13.87-49.95,12.84-75.62A237.88,237.88,0,0,0,375,451.43c-1.07-2.78-2.2-5.53-3.38-8.27-.67-1.56-3-.21-2.28,1.33a234.49,234.49,0,0,1,18.09,73.21c2.08,25.34.11,51.45-8.62,75.47-9,24.89-26.26,45.93-46.22,63-21,17.93-46,32.44-72.65,39.92-28.54,8-59,7.76-87.64.39q-5.28-1.37-10.46-3l.79,1.94a51.28,51.28,0,0,0,2.59-5.45,1.35,1.35,0,0,0-.79-1.94l0,0,.79,1.94a11.24,11.24,0,0,0,.64-1.36l-1.63.93A185.13,185.13,0,0,0,212.73,697a167.46,167.46,0,0,0,39.59-4.32A178.62,178.62,0,0,0,322.08,659a173.44,173.44,0,0,0,48.52-59.45,154.3,154.3,0,0,0,15.83-76.33c-.88-15.94-4-32-8.15-47.38-4.43-16.56-10.61-32.8-19.29-47.63a162.87,162.87,0,0,0-63.73-60.95A135.66,135.66,0,0,0,253.7,353a187,187,0,0,0-40.81-1.86,175.88,175.88,0,0,0-71.53,19.73,173,173,0,0,0-55.31,46.57,197.07,197.07,0,0,0-33.87,67.84c-1.77,6.28-3.24,12.65-4.45,19.06-.31,1.66,2.18,2.38,2.55.71l.56-2.59-2.55-.7a165.78,165.78,0,0,0,9.3,92.64,164.79,164.79,0,0,0,93.91,91.33l-.59-2.21c-1.87,1.49-3.5,3.09-5.21,4.73l1.28-.34a181.76,181.76,0,0,1-57.37-38.18A160.36,160.36,0,0,1,52.28,593a148.38,148.38,0,0,1-8.5-34.21,174,174,0,0,1-.58-33.85,221.09,221.09,0,0,1,12.38-59.35,195.43,195.43,0,0,1,28-52.07,170.52,170.52,0,0,1,100.55-64.16A198.54,198.54,0,0,1,218,344.93a184.39,184.39,0,0,1,36.68,1.53c23,3.6,44.62,13.71,62.76,28.26,18.34,14.71,33.18,33.5,44.31,54.14,2.75,5.1,5.26,10.32,7.57,15.63C370,446.05,372.27,444.71,371.6,443.16Z"/><polygon points="156.92 155.58 177.57 188.93 172.12 98.5 156.92 155.58"/><path d="M178.12,190.65l-21.68-35,15.95-59.89Zm-20.73-35.14L177,187.22l-5.19-86Z"/><path d="M329.78,489c-3-5.4-7.66-9.6-12.09-13.89s-8.8-8.95-10.85-14.77-1.19-13.07,3.57-17c2.51-2.06,5.74-3,8.59-4.53s5.53-4.25,5.37-7.49a7.1,7.1,0,0,0-4.53-5.82,15,15,0,0,0-7.66-.65,35,35,0,0,0-20.13,10.21,39.08,39.08,0,0,0-4.67,5.52c-2.33,3.4-5.7,10.71-2.1,18.28a44.73,44.73,0,0,0,2.53,4.66c5.16,8.19,12.3,16,15.26,25.36,1.32,4.2,1.5,8.95-.48,12.88a10.34,10.34,0,0,1-15.34,4.08c-2.66-1.87-3.92-4.67-4.77-7.7-1.46-5.24-1.46-11.35-4.58-16-2.63-3.91-8-6.77-12.11-3.26-14.44,12.26-1.41,37.68,10.13,47.1a32,32,0,0,0,5.09,3.35c12.45,6.66,28.83,6.21,40-2.44S336.61,501.38,329.78,489Z"/><path d="M330.92,488.34c-3.69-6.58-9.62-11.31-14.8-16.65-4.76-4.91-9.24-10.9-9-18.08a12.82,12.82,0,0,1,3.1-8.27c2.44-2.62,6-3.56,9.12-5.19,2.74-1.44,5.52-3.85,6.18-7a7.82,7.82,0,0,0-3.78-8.07c-3.14-2-7.1-1.88-10.64-1.35A34.41,34.41,0,0,0,301,427,38.47,38.47,0,0,0,285.56,441a22.3,22.3,0,0,0-3,8.69,18.8,18.8,0,0,0,2.17,11c3.36,6.68,8.41,12.37,12.35,18.71,3.68,5.92,7.42,13.47,4.92,20.54-2,5.66-8.65,8.42-13.79,5-2.85-1.9-4-5.26-4.76-8.45-.8-3.43-1.13-7-2.21-10.33a15.81,15.81,0,0,0-5.56-8.13,8.91,8.91,0,0,0-8.54-1.41c-2.59,1.07-4.69,3.58-6.13,5.93a19.69,19.69,0,0,0-2.59,7.26,32.78,32.78,0,0,0,2.16,16.14c4,10.78,11.61,21.09,22.35,25.83,12.07,5.32,27.11,4.8,38-3.08a33.09,33.09,0,0,0,13-32.09,27.6,27.6,0,0,0-2.93-8.24c-.81-1.49-3.09-.16-2.28,1.33,5.58,10.25,3.18,23.56-4.26,32.24-8.32,9.7-22.24,12.59-34.31,9.54a34,34,0,0,1-16.09-9A50.29,50.29,0,0,1,265,509.67c-4.33-8.67-7.18-20.91.45-28.68a7,7,0,0,1,3.62-2.27,6.18,6.18,0,0,1,3.88.74,12.23,12.23,0,0,1,5.66,7.38c2,6.1,1.46,13.5,6,18.52a11.6,11.6,0,0,0,15.43,1.4c5.49-4.13,6.17-11.67,4.34-17.85-2-6.78-6.18-12.66-10.23-18.35-2-2.85-4.12-5.68-5.89-8.7-2-3.35-3.47-6.78-3.29-10.74.31-6.57,4.55-12.05,9.23-16.31a33.49,33.49,0,0,1,17.9-8.61c3.31-.45,7.28-.38,9.64,2.35,2.24,2.58,1,5.65-1.3,7.67-2.59,2.25-6.09,3.06-9,4.78a13.78,13.78,0,0,0-5.81,6.73c-2.43,5.92-1,12.6,2.22,17.92,3.7,6.11,9.33,10.63,14.25,15.7a40.08,40.08,0,0,1,6.47,8.32A1.32,1.32,0,0,0,330.92,488.34Z"/><path d="M340.41,211.16a73.85,73.85,0,0,0,6.22-10.61Q343.74,206,340.41,211.16Z"/><path d="M341.55,211.83a74.17,74.17,0,0,0,6.22-10.61,1.36,1.36,0,0,0-.47-1.81,1.34,1.34,0,0,0-1.81.47q-2.89,5.43-6.22,10.62a1.32,1.32,0,0,0,2.28,1.33q3.31-5.18,6.22-10.61l-2.28-1.34a74.28,74.28,0,0,1-6.22,10.62,1.32,1.32,0,0,0,.47,1.8A1.34,1.34,0,0,0,341.55,211.83Z"/><path d="M298.48,244.85c-20,9.7-41.72,15.21-62.88,22C183,283.86,131.74,310.28,96,352.47,50.83,405.71,34.87,460.1,37.32,529.86l7.46.57c1.1-52.36,7.06-97.74,34.91-142.09,32.14-51.19,87.73-83.57,145.12-102.5,16.85-5.56,34.08-10.15,50.18-17.59a155.91,155.91,0,0,0,65.42-57.09C330.11,225.85,314.77,237,298.48,244.85Z"/><path d="M297.81,243.71c-14.57,7-30,11.87-45.48,16.6-14.08,4.3-28.09,8.74-41.83,14.06-26.16,10.15-51.46,22.91-74.23,39.38a240.87,240.87,0,0,0-31.4,27,259.35,259.35,0,0,0-26.52,32.42,230.7,230.7,0,0,0-33,68.63c-7.18,25.16-9.8,51.4-9.59,77.5q0,5.29.23,10.59a1.37,1.37,0,0,0,1.32,1.32l7.46.57a1.34,1.34,0,0,0,1.32-1.32c.66-31.12,3.06-62.5,12.26-92.4a200.64,200.64,0,0,1,45.07-78.2c20.13-21.47,44.67-38.42,70.84-51.72a353.34,353.34,0,0,1,40.46-17.4c15.84-5.71,32.16-10,47.93-15.92a162.43,162.43,0,0,0,41.17-22.32,158.92,158.92,0,0,0,31.42-31.55c2.21-3,4.3-6,6.3-9.09.93-1.45-1.31-2.7-2.28-1.33-10.38,14.69-25.44,25.4-41.46,33.21-1.52.74-.19,3,1.34,2.28,16.45-8,31.75-19.09,42.4-34.16l-2.28-1.33A155.3,155.3,0,0,1,270,269.05c-16,6.82-32.86,11.19-49.29,16.79a370.52,370.52,0,0,0-40.94,16.64c-26.39,12.66-51.35,28.86-72.27,49.45A202.79,202.79,0,0,0,59.1,427.51C48.59,456.56,45,487.46,43.82,518.17q-.24,6.12-.36,12.26l1.32-1.32-7.46-.58,1.32,1.33c-.91-26.42.73-53,7-78.77a225.37,225.37,0,0,1,30-69.17,245.85,245.85,0,0,1,55.18-60.78c22-17.12,46.85-30.49,72.6-41.09,13.26-5.47,26.82-10.16,40.52-14.4,15-4.64,30.09-9,44.6-14.93q5.39-2.21,10.64-4.73C300.68,245.25,299.34,243,297.81,243.71Z"/><polygon points="387.04 372.01 375.18 396.78 366 386.45 367.14 403.66 372.5 428.99 387.04 372.01"/><path d="M372.5,429.43h0a.45.45,0,0,1-.42-.35l-5.36-25.33-1.15-17.27a.42.42,0,0,1,.27-.43.45.45,0,0,1,.5.11l8.73,9.83,11.58-24.17a.44.44,0,0,1,.82.3l-14.53,57A.45.45,0,0,1,372.5,429.43Zm-6-41.72,1.06,15.92,5,23.42,13-50.83L375.57,397a.44.44,0,0,1-.72.1Z"/><polygon points="400.8 404.51 390.09 410.55 392.39 420.57 400.8 404.51"/><path d="M392.39,421h-.06a.44.44,0,0,1-.37-.34l-2.3-10a.44.44,0,0,1,.21-.48l10.72-6a.43.43,0,0,1,.52.07.44.44,0,0,1,.08.52l-8.41,16.06A.45.45,0,0,1,392.39,421Zm-1.8-10.24,2,8.54,7.17-13.68Z"/><path d="M257.64,218.84a1.06,1.06,0,0,1-.25-.09l-.06,0-.12-.06-.48-.29-.92-.62a3.75,3.75,0,0,0-2.31-.67l.57,1a17.23,17.23,0,0,1,2.41-3c.59-.61-.34-1.55-.94-.94a19.41,19.41,0,0,0-2.61,3.31.67.67,0,0,0,.57,1,2.1,2.1,0,0,1,.56,0c-.08,0,0,0,0,0l.16,0,.24.08.07,0,.07,0,.22.12.47.29a8.44,8.44,0,0,0,2,1.11.66.66,0,0,0,.35-1.28Z"/><path d="M256.4,214.88a26.72,26.72,0,0,1,5.1-.9.67.67,0,0,0,.66-.66.68.68,0,0,0-.66-.66,28,28,0,0,0-5.45,1,.66.66,0,0,0,.35,1.27Z"/><path d="M232.5,194.18a4.52,4.52,0,0,0-.4,1.08,4.34,4.34,0,0,1-.21.88c-.21.4-1,.38-1.44.46-.67.14-1.35.3-2,.38-.4.05-1.18.2-1.53-.08-.12-.09-.15-.33-.19-.51a2.68,2.68,0,0,0-.36-1,1.76,1.76,0,0,0-2-.65c-.14,0-1,.5-.91.65s.27-.07.27,0-.12-.09-.14-.13-.21-.28-.3-.42c-.18-.3-.33-.61-.51-.91a2.64,2.64,0,0,1-.36-.6,4.21,4.21,0,0,1,.55-2.16c.2-.46.43-.91.67-1.35l-.9.24c3.21,2,6.42,4.25,10.32,4.44l-.66-.66,0,.7c.07.84,1.39.85,1.33,0l-.06-.7a.67.67,0,0,0-.66-.66c-3.64-.17-6.67-2.43-9.66-4.26a.66.66,0,0,0-.9.23,9.75,9.75,0,0,0-1.38,3.73,2.07,2.07,0,0,0,.1,1,9.7,9.7,0,0,0,.58,1c.35.63.77,1.55,1.53,1.77a1.08,1.08,0,0,0,1-.22c.27-.21.54-.64.91-.33s.22.66.3.94a1.65,1.65,0,0,0,.62,1c1.16.8,3,.26,4.26,0a5,5,0,0,0,2.3-.68c.7-.63.57-1.67,1-2.45S232.91,193.42,232.5,194.18Z"/><path d="M223,198.71a3.91,3.91,0,0,0,1.31,1.79,3.15,3.15,0,0,0,1.86.53,12,12,0,0,0,4.75-1.49.66.66,0,0,0,.24-.9.67.67,0,0,0-.9-.24,11.83,11.83,0,0,1-3.86,1.3,3.42,3.42,0,0,1-.66,0,1.69,1.69,0,0,1-.59-.22,2.32,2.32,0,0,1-.88-1.11.69.69,0,0,0-.81-.46.66.66,0,0,0-.46.81Z"/><path d="M229.31,191.91a20.37,20.37,0,0,0,2.67.65c.63.13,1.73.33,1.78,1.13s-.51,1.71-.11,2.46a1.16,1.16,0,0,0,1.74.48c2.78-1.57,3.82-5,3.31-8a8.83,8.83,0,0,0-7.29-6.86,7.62,7.62,0,0,0-5.58.94,6.16,6.16,0,0,0-2.94,4.31c-.07.64-.07,1.25.5,1.62s1,.63,1.5.93a29.59,29.59,0,0,0,4.42,2.33c.79.31,1.13-1,.35-1.27a34,34,0,0,1-5.77-3.23l.33.57c-.3-2.67,2.36-4.76,4.8-5a8.39,8.39,0,0,1,7.25,3.15,7.15,7.15,0,0,1,1.07,5.68,6,6,0,0,1-1.29,2.6,5.79,5.79,0,0,1-1.16,1s-.54.23-.16.21c.2,0,.11,0,.13-.23s.1-.58.12-.86a2.71,2.71,0,0,0-.17-1.84,2.82,2.82,0,0,0-1.32-1c-1.22-.51-2.59-.54-3.83-1C228.86,190.34,228.52,191.62,229.31,191.91Z"/><path d="M228.53,209.68c.82,0,2.27-2.86,1.14-2.68-5.44.86-6.59-1.29-10.22-3.59-.23-.14-1.75,2-1.61,2.59C221.45,208.53,224.13,209.87,228.53,209.68Z" style="fill:#fff"/><path d="M228.53,210.34a2.73,2.73,0,0,0,1.85-1.7c.31-.64.69-1.72-.11-2.18-.48-.28-1.13,0-1.63,0a10.42,10.42,0,0,1-2.09,0,6.82,6.82,0,0,1-2.84-.94c-1-.56-1.82-1.25-2.72-1.89a4.91,4.91,0,0,0-1.39-.89,1.06,1.06,0,0,0-1,.48,5.83,5.83,0,0,0-1.36,2.31c-.14.62.14.9.62,1.24s1.25.84,1.9,1.23a15.48,15.48,0,0,0,8.79,2.31c.84,0,.85-1.36,0-1.32a13.89,13.89,0,0,1-5.46-.8,22.33,22.33,0,0,1-4.89-2.79l.3.39c0,.19.08-.12.11-.21a5.3,5.3,0,0,1,.42-.73,5.36,5.36,0,0,1,.38-.55c.06-.07.12-.15.19-.22a.6.6,0,0,0,.08-.08v0c.08.07-.43,0-.41.07a2,2,0,0,0,.28.18l.4.27.81.58c.49.35,1,.71,1.47,1a9.5,9.5,0,0,0,3,1.44,10.74,10.74,0,0,0,4.3.08,1.19,1.19,0,0,1,.2,0,1.47,1.47,0,0,1-.31-.3s0,.08,0,.11c-.09.2-.13.42-.23.62a3.49,3.49,0,0,1-.43.65c-.07.09-.37.3-.23.29C227.69,209.12,227.68,210.44,228.53,210.34Z"/><path d="M215.36,202.54c-.68,0-1.36-.81-1.92-1.18s-1.05-.69-1.58-1a32.88,32.88,0,0,0-3.62-1.91,49,49,0,0,0-11.32-3.3l.48.64c-.08-1.06-.49-2.05-.53-3.11a.66.66,0,0,0-1.32,0c0,1.07.45,2.05.53,3.11a.67.67,0,0,0,.48.63,46.81,46.81,0,0,1,11.6,3.44,32.71,32.71,0,0,1,3.57,2,18,18,0,0,1,1.55,1,3.35,3.35,0,0,0,2.08,1,.66.66,0,0,0,0-1.32Z"/><path d="M196.64,193.2a34.76,34.76,0,0,1,12.7.2,41.85,41.85,0,0,1,5.81,1.66c1.84.67,3.86.92,5.54,2,.72.45,1.38-.69.67-1.14-1.69-1.06-3.62-1.3-5.47-1.95a45.5,45.5,0,0,0-6.59-1.89,36.46,36.46,0,0,0-13-.12c-.83.14-.48,1.41.35,1.27Z"/><path d="M195.59,192.1a13.41,13.41,0,0,0-9.32,2.41c-.53.4-1.31.87-1.08,1.64a3,3,0,0,0,1.26,1.32,4.06,4.06,0,0,0,3.61.69,7.85,7.85,0,0,0,1.8-.8c.21-.13.42-.26.62-.4a2,2,0,0,0,.19-.12c.21-.15-.11.07-.32,0l-.39-.31c-.05-.1,0,.07,0,.09a1.77,1.77,0,0,0,.08.31,3.58,3.58,0,0,0,.2.49,1.25,1.25,0,0,0,.79.67c.5.13.79-.12,1.16-.38l2.09-1.49c.68-.49,0-1.63-.67-1.14l-2.33,1.66s-.15.08-.16.11.28,0,.29,0a4.17,4.17,0,0,0-.17-.54,1,1,0,0,0-.22-.54c-.43-.41-.91-.07-1.3.18-1.07.69-2.5,1.51-3.79.93a4.58,4.58,0,0,1-.84-.53l-.43-.34a1.14,1.14,0,0,0-.15-.16l0-.05c-.08-.16-.12,0-.09.39a7.08,7.08,0,0,0,.64-.54,5.22,5.22,0,0,1,.54-.38,9.16,9.16,0,0,1,1.4-.79,13.07,13.07,0,0,1,6.65-1c.85.06.85-1.26,0-1.32Z"/><path d="M246.44,213.72a51.24,51.24,0,0,0,9.5.75l-.64-.48c.15.61-.66,1.38-1,1.78a6.17,6.17,0,0,1-1.85,1.39c-1.85.85-4,.59-5.93.63a9.63,9.63,0,0,1-5.61-1.26c-1.32-.8-2.61-1.68-3.91-2.52a14,14,0,0,1-1.77-1.28c-.39-.35-.37-.16-.06-.67a25.67,25.67,0,0,1,2.26-2.93c.44-.52.89-1,1.34-1.55a6.22,6.22,0,0,1,1-1.09c.18-.12.06-.15.12-.13s.18.28.22.34c.27.42.56.84.85,1.25a46,46,0,0,0,2.85,3.66,6,6,0,0,0,2.65,2.11c.83.2,1.18-1.07.35-1.27-1.15-.27-2.22-1.93-2.91-2.79a41.1,41.1,0,0,1-2.65-3.63c-.68-1-1.54-1.35-2.5-.39s-2,2.18-2.9,3.3a10.85,10.85,0,0,0-2.2,3.15c-.38,1.25,1.37,2.2,2.21,2.77,1.59,1.06,3.22,2.2,4.9,3.12a11.53,11.53,0,0,0,6.1,1.12c2.43,0,5,.17,7.11-1.31,1.19-.84,3-2.51,2.63-4.15a.68.68,0,0,0-.64-.49,49.23,49.23,0,0,1-9.15-.7C246,212.31,245.6,213.58,246.44,213.72Z"/><path d="M216.23,205.58a52.94,52.94,0,0,1-3.35,10.56c-.55,1.23-1.16,2.44-1.76,3.65s-1.19,2.09-.93,3.41c.46,2.35,2.5,3.8,4.57,4.69a26.79,26.79,0,0,0,4.81,1.49c1.4.31,3.16,1,4.34-.19a12.7,12.7,0,0,0,1.55-2.16c.66-.95,1.3-1.92,1.91-2.9,1.13-1.84,2.19-3.73,3.26-5.61a.66.66,0,0,0-1.14-.67c-1.71,3-3.44,6-5.37,8.81a6.19,6.19,0,0,1-1.22,1.68c-.74.51-2,0-2.8-.2a27.76,27.76,0,0,1-4.46-1.3c-1.79-.72-4.13-2.05-4.21-4.27,0-.94.83-2.11,1.25-3,.53-1.08,1.06-2.16,1.55-3.27a54.71,54.71,0,0,0,3.27-10.41c.18-.83-1.09-1.18-1.27-.35Z"/><path d="M218.39,236.34l3.24-6.49a.66.66,0,1,0-1.14-.66l-3.24,6.49a.66.66,0,1,0,1.14.66Z"/><path d="M200.57,257.84c-.17-2.25-.53-2.37-.69-4.62l-2.71-7.33c-3.09,1.92-5.9,3.54-5.9,3.54-.44,4.42,6.06,13.52,8.71,11.65C200.57,260.66,200.62,258.57,200.57,257.84Z" style="fill:#fff"/><path d="M201.23,257.84a18.54,18.54,0,0,0-.39-2.57c-.16-.73-.15-1.52-.33-2.24a17.91,17.91,0,0,0-.74-2l-2-5.3a.67.67,0,0,0-1-.4q-2,1.26-4.11,2.49a16.77,16.77,0,0,0-1.79,1.05c-.63.49-.32,1.79-.19,2.47a13.86,13.86,0,0,0,.9,2.73,20.59,20.59,0,0,0,3.35,5.27c1,1.12,2.34,2.48,3.91,2.64,2.27.23,2.42-2.48,2.32-4.13-.06-.85-1.38-.85-1.33,0a6.33,6.33,0,0,1-.19,2.41c-.14.42-.41.46-.81.39-1.25-.23-2.35-1.52-3.12-2.43a19.26,19.26,0,0,1-2.81-4.42,9,9,0,0,1-1-4.36l-.32.57q3-1.73,5.9-3.54l-1-.39,1.91,5.17a19.92,19.92,0,0,1,.78,2.12c.15.62.14,1.31.27,1.95a17.77,17.77,0,0,1,.4,2.53C200,258.68,201.29,258.68,201.23,257.84Z"/><path d="M210.63,216.13a109.52,109.52,0,0,1-9.86,16.5q-3.9,5.18-8.11,10.1c-2.46,2.91-5.16,5.66-7.23,8.87a24.44,24.44,0,0,0-3.65,10.92,30.52,30.52,0,0,0,.06,6.41,19.38,19.38,0,0,0,1.06,5.39c.67,1.54,1.87,1.41,3.22.83s2.68-1.22,4-1.92a36.86,36.86,0,0,0,6.73-4.69c5.5-4.85,9.13-11.37,12-18,.33-.77-.8-1.45-1.14-.67-2.44,5.72-5.42,11.33-9.76,15.84a33.48,33.48,0,0,1-6,4.92,38.51,38.51,0,0,1-3.47,2c-.76.39-3.59,2.14-4.23,1.45-.49-.52-.55-1.84-.68-2.51a31.6,31.6,0,0,1-.46-3.2,30.07,30.07,0,0,1,0-6A23.12,23.12,0,0,1,187,251.68a105.9,105.9,0,0,1,7-8.5q3.83-4.53,7.43-9.26a110.6,110.6,0,0,0,10.33-17.12c.38-.76-.75-1.43-1.14-.67Z"/><path d="M233.3,183c2.87-3.83,6.58-7.1,9-11.24a16.75,16.75,0,0,0,2.1-12.48c-1-4.12-3.41-7.71-5.65-11.24a53.41,53.41,0,0,1-6.3-12.93c-1.66-5.45-1.91-11.32.63-16.54.37-.76-.77-1.43-1.14-.67-4.32,8.88-1.2,18.9,3.38,27,2.14,3.78,4.82,7.28,6.61,11.26a15.5,15.5,0,0,1,0,13.4c-2.33,4.86-6.65,8.49-9.84,12.76-.51.68.64,1.34,1.14.66Z"/><path d="M243.76,116.3c-2,5.06-1.61,10.93-.25,16.1,1.53,5.82,5.08,10.72,7.8,16,2.9,5.64,4.55,11.64,3.51,18a26.25,26.25,0,0,1-2.86,8.35,30.82,30.82,0,0,1-5.82,7.24c-4.67,4.5-10.41,9.39-10.21,16.5a.66.66,0,0,0,1.32,0c-.19-6.71,5.43-11.33,9.82-15.57a29,29,0,0,0,8.68-14.46,27.73,27.73,0,0,0-1.6-17.1c-2.34-5.6-6.19-10.49-8.35-16.15s-3-12.71-.77-18.56c.31-.79-1-1.14-1.27-.35Z"/><path d="M210.34,223.71c-.47,2.25-2,1.83-3.35,6.06s-2.12,8.41-4.66,12c-2,2.82-4.63,3.07-7.37,5.16-2.3,1.77-.8,7.23,2.21,7.38a10.77,10.77,0,0,0,2.51-.74c5.26-2.13,8-3,12.31-7a21.13,21.13,0,0,0,6.5-15.18c0-.62,2.5-1.15,2.32-1.74s-2.8.48-6.05-1.63Z"/><path d="M209.7,223.53a6.55,6.55,0,0,1-1.56,2.5,14.2,14.2,0,0,0-2.13,4.66c-1.22,3.95-2.07,8.85-5.19,11.82-1.34,1.27-3.11,1.92-4.68,2.84-1.23.72-2.38,1.47-2.78,2.91-.63,2.21.35,5.29,2.49,6.35a4,4,0,0,0,3.38-.18c1.53-.55,3-1.19,4.54-1.82a29.56,29.56,0,0,0,8.69-5.56,21,21,0,0,0,5.76-9.49,39.91,39.91,0,0,0,.91-5.64c.06-.41.05-.39.43-.59s.53-.25.79-.38.9-.46,1.06-.92c.4-1.15-1-1.21-1.71-1.23a7.49,7.49,0,0,1-4.64-1.4c-1.5-1.26-2.85-2.78-4.25-4.16-.61-.6-1.55.34-.94.93l3.58,3.51a8.67,8.67,0,0,0,6,2.43,2.92,2.92,0,0,0,.66,0,2.71,2.71,0,0,0,.29,0h0q.36,0-.15-.66a7.69,7.69,0,0,0-1.43.76c-1.2.67-1,1.64-1.07,2.9A21,21,0,0,1,214,243.38a23.45,23.45,0,0,1-7.84,6.67,43.08,43.08,0,0,1-4.33,1.95,27.87,27.87,0,0,1-4.14,1.55c-2.47.57-3.62-3.35-3-5.14.52-1.42,2.48-2.14,3.72-2.78a12.43,12.43,0,0,0,3.94-2.82c2.7-3.17,3.64-7.51,4.82-11.4a13.19,13.19,0,0,1,2.31-4.94,6.1,6.1,0,0,0,1.5-2.59C211.17,223.05,209.89,222.7,209.7,223.53Z"/><path d="M201.89,234.76a8.74,8.74,0,0,0,1.55,3.29,1.43,1.43,0,0,0,1,.69,1.46,1.46,0,0,0,1-.31l.41-.32a.94.94,0,0,0,.4-.5.68.68,0,0,0-.32-.78.67.67,0,0,0-.92.26.68.68,0,0,0,.23.91h0a.66.66,0,1,0,.67-1.14h0l.24.9h0l-.23.23h-.64l-.33-.57v0l.09-.34c.07-.08.09-.1,0-.06l-.08.06-.12.09-.12.1,0,0-.12.08c-.06,0-.11,0,0,0s-.2.05,0,0c-.1,0,0,0,0,0s0,0,0,0l0,0-.11-.12c-.08-.09,0,0,0,0l-.09-.12a5.07,5.07,0,0,1-.36-.54c-.11-.17-.21-.36-.31-.54s-.09-.19-.14-.29l-.06-.14c0-.07,0,.08,0,0a9,9,0,0,1-.4-1.24.65.65,0,0,0-.81-.46.67.67,0,0,0-.46.81Z"/><path d="M203.09,234.6l.21-.17.1-.08s-.06,0,0,0l.45-.32.44-.28.23-.15.14-.08c.13-.08.1,0-.13,0l-.34-.09s-.1-.09-.09-.11.08.11.09.13l.18.23c.12.16.23.32.35.47l.32.45a3.21,3.21,0,0,1,.34.48l-.09-.33v0l.49-.63h0l.51.06h0l.33.57v0a.67.67,0,0,0-.66-.66.69.69,0,0,0-.66.66v0a.62.62,0,0,0,.33.57.66.66,0,0,0,.55.07.69.69,0,0,0,.48-.64,1.24,1.24,0,0,0-.37-.77l-.42-.58-.41-.54a1.68,1.68,0,0,0-.63-.64,1,1,0,0,0-.92.21l-.57.36a11.05,11.05,0,0,0-1.16.88.66.66,0,0,0,.93.93Z"/><path d="M205.05,232.31a22.24,22.24,0,0,0,2.89-5,15.16,15.16,0,0,1,1.13-2.24,4.69,4.69,0,0,1,.73-.92,3.8,3.8,0,0,1,.37-.33,1.23,1.23,0,0,0,.25-.17c-.59-.41-.83-.48-.75-.19a.28.28,0,0,1,0,.13,1.58,1.58,0,0,0,.84,1.38,3.36,3.36,0,0,1,.77.42s.07.07,0,0,0,.17-.05.24c0,.26-.1.52-.16.77a34.36,34.36,0,0,1-2,5c-.18.43-.87,2.38-1.61,1.59-.56-.61-.75-1.37-1.71-1.43s-.84,1.26,0,1.32c.1,0,.38.51.48.66a2.08,2.08,0,0,0,1.07.87,2.24,2.24,0,0,0,2.46-1.3c.52-.95.87-2,1.33-3a19.33,19.33,0,0,0,1.16-2.83c.24-.8.69-2,0-2.71a3.79,3.79,0,0,0-1-.63c-.12-.06-.31-.26-.21-.07a1.93,1.93,0,0,1-.1-.43c-.16-.83-.74-1.25-1.5-.7a6.49,6.49,0,0,0-1.85,2.18c-.54,1-.93,2-1.4,3a17.74,17.74,0,0,1-2.13,3.48c-.52.66.41,1.6.93.93Z"/><path d="M215.49,242.07c1.84-1.24,2.76-3.38,3.48-5.41a23.46,23.46,0,0,0,1.28-7,.66.66,0,0,0-1.32,0,22,22,0,0,1-1.1,6.28c-.59,1.79-1.38,3.93-3,5-.7.48,0,1.62.67,1.14Z"/><path d="M212.4,346.74c7.56-19.71,23-34.63,40.33-46.08,19.73-13.05,41.52-22.71,60.85-36.42a145.46,145.46,0,0,0,26.11-23.38,132.86,132.86,0,0,0,19.05-29.27c5.08-10.58,8.87-22.08,9.09-33.9a48.09,48.09,0,0,0-8.3-28.39,41.9,41.9,0,0,0-23.1-16.71,33.11,33.11,0,0,0-13-.62,85,85,0,0,0-13.31,2.65,38.19,38.19,0,0,0-5,1.75c-1.55.68-.21,2.95,1.33,2.28a53.37,53.37,0,0,1,11.3-3.13,56.59,56.59,0,0,1,12.58-1.31c4.75.16,9.6,2,13.71,4.34a39.57,39.57,0,0,1,10.69,8.8,44.28,44.28,0,0,1,10.39,26c.72,11.62-2.49,23.2-7.17,33.74A130.53,130.53,0,0,1,340,236.35a138.14,138.14,0,0,1-25.25,23.78c-18.85,13.86-40.22,23.58-60,36-17.06,10.77-32.91,24.5-42,42.89q-1.68,3.42-3,7c-.6,1.58,2,2.27,2.55.7Z"/><path d="M286.84,357.06a1.5,1.5,0,0,0,0-3,1.5,1.5,0,0,0,0,3Z"/><path d="M288.51,356a94.56,94.56,0,0,1,19.95-45.76,92.41,92.41,0,0,1,9.84-10.43c1.26-1.15-.62-3-1.87-1.87a97.26,97.26,0,0,0-27.3,43.2A93.78,93.78,0,0,0,286,355.27c-.24,1.66,2.3,2.38,2.55.7Z"/><path d="M364.84,251.17a110,110,0,0,0,15.91-31.9,107.64,107.64,0,0,0,5.34-36.66c-.45-11.61-3.25-23.37-9.66-33.18A47.61,47.61,0,0,0,347.94,129c-13.66-3.35-28.87-1.53-40.87,6a49.83,49.83,0,0,0-4.53,3.25c-1.33,1.07.55,2.92,1.87,1.87,10.89-8.71,25.63-11.7,39.24-9.35A44.84,44.84,0,0,1,360.28,137a46.81,46.81,0,0,1,12.29,11.48c6.62,9,9.86,20,10.7,31.05a101.64,101.64,0,0,1-4,35.44,111.23,111.23,0,0,1-14.43,31.64c-.74,1.09-1.5,2.17-2.29,3.23-1,1.37,1.28,2.69,2.28,1.33Z"/><path d="M304.41,139.88C314.66,131,327.24,125.2,341,125.2c12.25,0,24.91,3.88,34.18,12.06,7.84,6.91,13.28,16.18,16.83,25.93a101.85,101.85,0,0,1,5.9,32.43,94.92,94.92,0,0,1-3.92,30.62q-.51,1.65-1.11,3.27c-.59,1.6,2,2.28,2.55.7a92.41,92.41,0,0,0,5.15-31.06,106.66,106.66,0,0,0-5-33.83c-3.37-10.31-8.6-20.25-16.37-27.94-8.95-8.88-20.87-13.49-33.34-14.6-14.21-1.26-27.94,3.4-39.21,12q-2.07,1.57-4,3.27c-1.29,1.11.59,3,1.87,1.87Z"/><path d="M347.64,362.92a76.24,76.24,0,0,0-9,36.25,1.32,1.32,0,0,0,2.64,0,73.36,73.36,0,0,1,8.62-34.91c.8-1.5-1.47-2.84-2.28-1.34Z"/><path d="M108.85,96.21l.43,4.93,1.16,13.3,1.74,19.81,2.1,24.07,2.31,26.38,2.33,26.62,2.17,24.83,1.85,21.07,1.32,15.08c.2,2.39.39,4.77.62,7.15l0,.31c.15,1.68,2.79,1.7,2.64,0l-.43-4.93L126,261.53l-1.73-19.81-2.11-24.07-2.3-26.38-2.33-26.62-2.18-24.83-1.84-21.07-1.32-15.08c-.21-2.39-.4-4.77-.62-7.15l0-.31c-.15-1.68-2.79-1.7-2.64,0Z"/><path d="M194.36,127l8.77,23.81,1.27,3.44c.58,1.58,3.14.89,2.55-.71l-8.77-23.8-1.27-3.44c-.58-1.58-3.14-.9-2.55.7Z"/><path d="M392.36,421.42l-5.72,10.33c-.82,1.49,1.46,2.82,2.28,1.34l5.73-10.34c.82-1.49-1.46-2.82-2.29-1.33Z"/><path d="M379.86,254.2a5.34,5.34,0,0,1,2.13,4.28,11.29,11.29,0,0,0,.16,3.28c.15.83.48,1.64,0,2.37-.75,1.12-1.47,2.25-2.23,3.36a11.54,11.54,0,0,1-1.05,1.44,1.39,1.39,0,0,1-.8.37,2.54,2.54,0,0,1-1.7-.43,18.16,18.16,0,0,1-4.3-3.11c-.58-.63-1.51.31-.93.93a18.75,18.75,0,0,0,4.51,3.28,3.7,3.7,0,0,0,3.33.43,3.27,3.27,0,0,0,1.4-1.28c1-1.33,1.86-2.74,2.77-4.12a6.54,6.54,0,0,0,.48-.73,2.65,2.65,0,0,0,0-1.6,15.4,15.4,0,0,1-.39-3.76,5.08,5.08,0,0,0,0-1.74,6.86,6.86,0,0,0-.62-1.51,8,8,0,0,0-2.11-2.6c-.68-.52-1.34.63-.67,1.14Z"/><path d="M359.77,320a6,6,0,0,1,0,1.34l0-.18a5,5,0,0,1-.17.77.66.66,0,0,0,1.28.35,5.85,5.85,0,0,0,.2-2.28.77.77,0,0,0-.2-.47.66.66,0,0,0-.46-.19.71.71,0,0,0-.47.19.62.62,0,0,0-.19.47Z"/><path d="M308.94,333.36c12.92,3.91,25.82,7.88,38.76,11.72,12.76,3.79,25.78,6.08,38.89,8.28l22.33,3.77c.83.14,1.19-1.14.35-1.28-13.2-2.22-26.44-4.26-39.59-6.78s-25.89-6.54-38.7-10.42l-21.69-6.56a.66.66,0,0,0-.35,1.27Z"/><path d="M314.69,333.56a13.57,13.57,0,0,1-19,8.37c-.64-.32-1.33-.81-1.34-1.52a1.63,1.63,0,0,1,1.13-1.36c2.06-.83,4.64.57,6.56-.56a5.73,5.73,0,0,0,2.09-3.4,4.41,4.41,0,0,0,.14-3.43,61.49,61.49,0,0,1,10.66,2.19" style="fill:#fff"/><path d="M314.05,333.38a13.06,13.06,0,0,1-16.94,8.46c-.61-.22-2.74-.93-1.88-1.89.59-.65,1.84-.54,2.62-.49,1.41.09,2.9.38,4.23-.27a5.43,5.43,0,0,0,2.47-3.37c.52-1.48.95-3,.26-4.49l-.57,1a62.1,62.1,0,0,1,10.48,2.17.66.66,0,0,0,.35-1.27A63.25,63.25,0,0,0,304.24,331c-.54-.06-.75.6-.57,1,.62,1.33-.24,3.47-.9,4.68-.87,1.61-2.34,1.68-4,1.54a6.69,6.69,0,0,0-3.91.38,2,2,0,0,0-1,2.64c.59,1.11,2.1,1.61,3.22,2a14.51,14.51,0,0,0,4.62.74,14,14,0,0,0,8.36-2.75,14.66,14.66,0,0,0,5.26-7.49.66.66,0,0,0-1.28-.35Z"/><path d="M380.4,292.16a20.15,20.15,0,0,0,4.31-4.29,20,20,0,0,0-4.8-7.52l-.21-.21c0-.1,0-.21,0-.32,0-.88-.43-2.06-1.29-1.88a1.14,1.14,0,0,0-.57.37c-1.25-1.34-2.22-2.82-1.91-4.55a32.88,32.88,0,0,0-9-.77,5.21,5.21,0,0,1-1.5,3.25l.26-1.3,0,0,.82-1.8c-.75-.29-1.19.81-1.5,1.55-.66,1.54-2.37,2.31-4,2.82a37.43,37.43,0,0,1-8.51,1.69l.17,6.35a36.52,36.52,0,0,1,5.72-.41,6.45,6.45,0,0,1,.76,0,13.35,13.35,0,0,0,1.26,7.94c1,2,2.53,3.69,3.61,5.65s1.75,4.34.92,6.42c2.93,1.43,6.35-.15,9.6-.41a11.77,11.77,0,0,1,7.39,1.88c-1.77-4.33-4.61-8.42-4.76-13.09a15.88,15.88,0,0,1,.35-3.64A4.78,4.78,0,0,1,380.4,292.16Z"/><path d="M380.73,292.73a17,17,0,0,0,4.43-4.37c.44-.73-.17-1.62-.49-2.32a19.1,19.1,0,0,0-1.56-2.84,21.32,21.32,0,0,0-1.74-2.27c-.28-.31-.84-.71-1-1.08a7,7,0,0,1-.11-1c-.39-1.45-1.69-2.12-2.88-1.05h.93c-1.06-1.17-1.93-2.42-1.71-4.08a.65.65,0,0,0-.49-.63,35,35,0,0,0-9.18-.8.69.69,0,0,0-.66.66,4.82,4.82,0,0,1-1.31,2.78l1.11.64.26-1.29c.11-.53-.45-1.09-1-.75l0,0,.91.9.82-1.8a.67.67,0,0,0-.39-1c-.93-.2-1.51.35-1.93,1.14a7,7,0,0,1-.89,1.6,5.21,5.21,0,0,1-1.66,1.13,29.18,29.18,0,0,1-9.67,2.17.67.67,0,0,0-.66.66l.17,6.35a.67.67,0,0,0,.83.63,28.38,28.38,0,0,1,6.31-.34l-.66-.66a14.48,14.48,0,0,0,2.25,9.8c1.91,3,4.91,6.24,3.56,10a.68.68,0,0,0,.31.75c2.63,1.18,5.32.47,8,0a12,12,0,0,1,9,1.51c.45.29,1.19-.2,1-.74-1.07-2.58-2.46-5-3.49-7.62a15.14,15.14,0,0,1-.92-8.77l-.81.46a4.41,4.41,0,0,1,2.46,1.9.66.66,0,0,0,1.14-.67,5.77,5.77,0,0,0-3.25-2.5.66.66,0,0,0-.81.46,16,16,0,0,0,.66,8.79c1,2.86,2.58,5.49,3.74,8.3l1-.75a12.62,12.62,0,0,0-7.91-2c-2.95.28-6.2,1.78-9.08.49l.31.74c1.21-3.42-.69-6.68-2.59-9.42a18.65,18.65,0,0,1-2.75-5,13.76,13.76,0,0,1-.43-5.78c0-.38-.34-.64-.66-.66a29.75,29.75,0,0,0-6.66.39l.84.64-.17-6.35-.66.66a36.07,36.07,0,0,0,9.13-1.87,8.25,8.25,0,0,0,2.92-1.6,4.49,4.49,0,0,0,1-1.37c.1-.22.45-1.31.76-1.25l-.4-1-.82,1.8c-.26.55.3,1.31.9.91l0,0-1-.74-.27,1.29c-.12.61.63,1.16,1.11.64A6.3,6.3,0,0,0,367.6,273l-.66.66a34,34,0,0,1,8.83.75l-.48-.64c-.26,2,.82,3.61,2.1,5a.67.67,0,0,0,.93,0c.73-.65.67,1.08.72,1.36.08.47.46.73.78,1.06a19,19,0,0,1,2.63,3.43,19.53,19.53,0,0,1,.93,1.75,5.44,5.44,0,0,1,.44,1c.11.49,0,.56-.29.94a18.61,18.61,0,0,1-3.47,3.28C379.39,292.09,380.05,293.24,380.73,292.73Z"/><path d="M192.69,194.87l-.63.71a.45.45,0,0,0-.13.22.55.55,0,0,0,0,.5.45.45,0,0,0,.13.22.68.68,0,0,0,.47.19l.17,0a.81.81,0,0,0,.3-.17l.63-.71a.45.45,0,0,0,.13-.22.55.55,0,0,0,0-.5.45.45,0,0,0-.13-.22.7.7,0,0,0-.47-.19l-.18,0a.66.66,0,0,0-.29.17Z"/><path d="M233.26,196.35a1,1,0,0,1-.13-1c.06-.13.14-.25.19-.38a.38.38,0,0,0-.08-.4c-.16-.13-.41,0-.5.17a1.2,1.2,0,0,0-.06.6,2.06,2.06,0,0,1-1.37,2.1c-.35.08-.76.07-1,.35l.19.16c-.1.22-.2.45-.29.68a.27.27,0,0,0,0,.15c0,.09.12.13.21.14.6.08,1.1-.71,1.68-.53a2.13,2.13,0,0,1,.46.27.46.46,0,0,0,.5.05.5.5,0,0,0,.17-.23l.94-1.84A1,1,0,0,1,233.26,196.35Z"/><path d="M233.83,196s-.12-.22-.08-.11a.56.56,0,0,1,0-.12c0,.07,0,.06,0,0s0-.08,0,0l0-.12c0,.1,0-.09.06-.1a1.14,1.14,0,0,0-.06-1.35,1,1,0,0,0-1.36,0,1.58,1.58,0,0,0-.36,1.26c0,.08,0,.15,0,.23,0-.14,0,0,0,.07a1,1,0,0,1-.06.23s-.09.25,0,.13c-.06.12-.13.24-.2.36s0,.06,0,0l-.07.08a1.29,1.29,0,0,1-.17.16c.11-.09,0,0,0,0s-.24.1-.1.06a3.56,3.56,0,0,1-.47.1,1.53,1.53,0,0,0-1,.46.67.67,0,0,0,0,.93l.19.16-.1-.8c-.08.18-.15.36-.23.53a1.23,1.23,0,0,0-.16.81.91.91,0,0,0,1,.63,2.19,2.19,0,0,0,.89-.3l.33-.2s.18-.06,0,0c0,0,.2,0,.11,0s-.05,0,0,0-.1,0,0,0l0,0,.11.07a2.06,2.06,0,0,0,.5.28,1,1,0,0,0,1.21-.39,7.34,7.34,0,0,0,.48-.92l.55-1.08a.67.67,0,0,0-.05-.73.69.69,0,0,0-.7-.24c.13,0-.06,0-.07,0s-.06,0-.07,0,0,0-.07-.05,0,0-.05-.07a.66.66,0,1,0-.93.93,1.62,1.62,0,0,0,1.54.5l-.74-1-.74,1.46-.18.35s-.07.1-.07.14.26-.11.29-.14.14.08,0,0l-.11-.07a2.68,2.68,0,0,0-.28-.18,1.51,1.51,0,0,0-1.4.11c-.15.08-.3.19-.46.27l-.07,0-.07,0c-.08,0,0,0,0,0h0a.34.34,0,0,1,.19.09l.17.29,0,.24,0-.08a.77.77,0,0,0,.08-.19l.15-.34a.68.68,0,0,0-.1-.8l-.19-.16v.93l.07-.08c-.06,0,0,0,0,0l0,0,.11,0,.39-.07a2,2,0,0,0,.82-.33,2.76,2.76,0,0,0,1.05-1.5,3.29,3.29,0,0,0,.13-.88c0-.07,0-.15,0-.22a.76.76,0,0,1,0-.15c0,.05,0,0,0,0-.08.07-.07.15-.19.18s-.2,0-.27-.15-.22-.1-.21-.22,0-.09,0,0,0,0,0,0-.08.14-.11.22a1.92,1.92,0,0,0-.16.58,1.62,1.62,0,0,0,.29,1,.69.69,0,0,0,.91.24A.67.67,0,0,0,233.83,196Z"/><path d="M222,195.67a5.09,5.09,0,0,0,.48,1.7c.21.55.44,1.1.68,1.65a.66.66,0,0,0,.9.23.67.67,0,0,0,.24-.9l-.11-.24c0-.06-.05-.12-.07-.17s.07.16,0,0l0-.08c-.12-.29-.24-.59-.35-.88s-.22-.58-.31-.87c0-.12-.07-.24-.1-.36l0-.15c0-.1,0,.19,0,.1s0-.05,0-.07a.67.67,0,0,0-.66-.66.68.68,0,0,0-.66.66Z"/><path d="M224.61,189.47l0-.07-.07.16a.64.64,0,0,1,.08-.14l-.1.14a.38.38,0,0,1,.11-.11l-.14.1.13-.07a.58.58,0,0,0,.18-.17.48.48,0,0,0,.12-.22.5.5,0,0,0,0-.27.41.41,0,0,0-.08-.24l-.1-.14a.66.66,0,0,0-.29-.17l-.18,0a.63.63,0,0,0-.33.09l-.12.07a1.37,1.37,0,0,0-.23.19l-.14.18,0,.06a2,2,0,0,0-.1.21s0,0,0,.07a.75.75,0,0,0,.07.51.49.49,0,0,0,.17.18.48.48,0,0,0,.22.12l.18,0a.63.63,0,0,0,.33-.09l.13-.1a.58.58,0,0,0,.17-.29Z"/><path d="M224,189.88a3.23,3.23,0,0,0,1.36,1.62,15.09,15.09,0,0,0,2.35.79c.82.25,1.16-1,.36-1.28a9,9,0,0,1-2.72-1.41l-.34,1.23c.74-.08,1.34.46,1.94.82a11.68,11.68,0,0,0,2,.94,11.36,11.36,0,0,0,2.16.53c.31,0,.63.07.94.13a2.25,2.25,0,0,1,.51.13c.06,0,.26.17.25.11l.07-.51,0,.05.4-.3-.06,0,.51.06,0,0a.67.67,0,0,0-.91.24.68.68,0,0,0,.24.9.74.74,0,0,0,1.11-.43c.14-.5-.29-.91-.68-1.15a8.74,8.74,0,0,0-2.78-.64,10.35,10.35,0,0,1-2.85-1.08c-.88-.49-1.72-1.22-2.8-1.11a.67.67,0,0,0-.33,1.23,10.47,10.47,0,0,0,3,1.55l.36-1.28c-.64-.19-1.31-.35-1.93-.6a2.07,2.07,0,0,1-1-1.19c-.38-.77-1.52-.1-1.14.66Z"/><path d="M235.24,201.9l.79.24.29.1h0a.75.75,0,0,0,.13.06,4.15,4.15,0,0,1,.57.35l.64.5a4.12,4.12,0,0,1,1,1.35,10,10,0,0,0,1.06,1.67.66.66,0,0,0,.94-.94,9.54,9.54,0,0,1-.94-1.55,5.42,5.42,0,0,0-1.28-1.57,7.66,7.66,0,0,0-1.37-1,9.23,9.23,0,0,0-1.53-.53.66.66,0,1,0-.35,1.27Z"/><path d="M230.84,217.51a5.79,5.79,0,0,1,.62-.93c.34-.47.69-.93,1-1.39a10.47,10.47,0,0,1,1.12-1.37,4,4,0,0,1,.31-.27c-.06,0,0,0,.05,0l.15-.11a6.05,6.05,0,0,1,.55-.32.67.67,0,0,0,.24-.9.68.68,0,0,0-.9-.24,5.74,5.74,0,0,0-1.28.89,12,12,0,0,0-1.29,1.56l-1.11,1.46a5.46,5.46,0,0,0-.65,1,.67.67,0,0,0,.24.9.66.66,0,0,0,.9-.24Z"/><path d="M210.49,216.57c.12.49.26,1,.37,1.47,0,.21.08.41.11.62s0-.16,0,0v.09c0,.06,0,.13,0,.2s0,.33,0,.49a.67.67,0,0,0,.66.66.66.66,0,0,0,.66-.66,11.75,11.75,0,0,0-.22-1.67c-.11-.51-.26-1-.38-1.51a.65.65,0,0,0-.81-.46.67.67,0,0,0-.46.81Z"/><path d="M240.38,185.39a.38.38,0,0,0,0-.75.38.38,0,0,0,0,.75Z"/><path d="M242.33,183.25c2.73-2.64,5.57-5.25,7.53-8.55A20.55,20.55,0,0,0,252.37,162c0-.42-.7-.42-.66,0a19.87,19.87,0,0,1-2.56,12.61c-1.92,3.15-4.65,5.66-7.29,8.19-.3.3.17.76.47.47Z"/><path d="M229.93,206.15a51.87,51.87,0,0,0-2.26,7.8,19.64,19.64,0,0,0-.34,9.11c.58,2.48,2.67-1.59,2.66-1.86-.18-3.54.84-7.27,1.8-10.65a33.87,33.87,0,0,1,2-5.37,12.5,12.5,0,0,1,1.2-2.11c.19-.26,1.11-1.3,1-1.73-.34-1-.79-1.22-2.15-1.65A21.37,21.37,0,0,0,229.93,206.15Z" style="fill:#fff"/><path d="M227.93,224.52c-.36,0-1-.18-1.24-1.31a20.32,20.32,0,0,1,.34-9.4,53.39,53.39,0,0,1,2.29-7.91h0a21.9,21.9,0,0,1,4-6.65l.29-.32.4.13c1.35.42,2.14.73,2.58,2.07.22.65-.32,1.41-.95,2.19l-.11.14a12,12,0,0,0-1.13,2,33.85,33.85,0,0,0-1.94,5.27c-.83,2.9-2,6.87-1.78,10.43,0,.53-1.35,3.18-2.56,3.35ZM234,200.45a21,21,0,0,0-3.45,5.94h0a52.11,52.11,0,0,0-2.24,7.71,18.85,18.85,0,0,0-.33,8.81c0,.09,0,.15.05.2a6.5,6.5,0,0,0,1.29-2c-.16-3.75,1-7.8,1.84-10.76a33.67,33.67,0,0,1,2-5.47,13.08,13.08,0,0,1,1.26-2.22l.14-.18a4.47,4.47,0,0,0,.7-1C235.09,200.93,234.89,200.75,234,200.45Z"/><path d="M218.2,199.54a25.16,25.16,0,0,0-4.63,9,15.21,15.21,0,0,0-.72,5.16c0,1.7-.22,2.58,1.22,1.29,1.75-1.58,2.19-5.24,2.87-7.45,1.05-3.45,3.25-6,5.37-8.92a1.24,1.24,0,0,0-.79-2.06C221,196.46,218.84,198.68,218.2,199.54Z" style="fill:#fff"/><path d="M213.12,216.24a.77.77,0,0,1-.35-.08c-.59-.26-.58-.91-.58-1.81v-.67a15.92,15.92,0,0,1,.74-5.36,25.91,25.91,0,0,1,4.74-9.17h0s2.71-3.43,3.94-3.27a1.88,1.88,0,0,1,1.51,1.1,2.05,2.05,0,0,1-.27,2l-1,1.35c-1.76,2.35-3.42,4.57-4.27,7.37-.16.53-.31,1.14-.47,1.79-.52,2.17-1.12,4.63-2.59,6A2.38,2.38,0,0,1,213.12,216.24Zm5.62-16.31a24.64,24.64,0,0,0-4.54,8.76,14.67,14.67,0,0,0-.69,5v.91l.12-.1c1.17-1.05,1.71-3.3,2.19-5.29.16-.68.32-1.32.48-1.87a25.51,25.51,0,0,1,4.48-7.77l1-1.34a.69.69,0,0,0,.12-.69.51.51,0,0,0-.38-.31,13.79,13.79,0,0,0-2.78,2.73Z"/><path d="M244.92,213.14a.24.24,0,0,1,0,.08l.06-.16a.82.82,0,0,1-.12.2l.1-.13a3.57,3.57,0,0,1-.43.44l-.58.56a.66.66,0,0,0,.47,1.13.71.71,0,0,0,.46-.19l.79-.76a3.44,3.44,0,0,0,.35-.41,1.3,1.3,0,0,0,.2-.41.75.75,0,0,0-.07-.51.64.64,0,0,0-.4-.3.67.67,0,0,0-.5.06.65.65,0,0,0-.31.4Z"/><path d="M260.72,218.16c3.71-7,5.45-14.64,4-22.53-1.11-6-3.89-11.57-4.54-17.63a21.26,21.26,0,0,1,1.64-10.71c.33-.78-.81-1.45-1.14-.67a22.67,22.67,0,0,0-1.94,9.43,33.52,33.52,0,0,0,1.54,8.65c1.81,6.18,4.07,12.18,3.65,18.74a35.13,35.13,0,0,1-4.32,14.06c-.4.75.74,1.41,1.14.66Z"/><path d="M261.85,210.15a22.65,22.65,0,0,0,1.33-9.64,27,27,0,0,0-3.11-9.23c-.39-.75-1.53-.09-1.14.67a25,25,0,0,1,3,8.82,22.07,22.07,0,0,1-1.31,9c-.26.81,1,1.15,1.27.35Z"/><path d="M83.82,662.77c1-.65,2.15,0,3,.61a10.54,10.54,0,0,0,2.77,1.7c.45.15,1,.12,1.4.26s.55.95.74,1.41a29.22,29.22,0,0,0,1.49,2.89,7.22,7.22,0,0,1,1.09,3.3,4.22,4.22,0,0,1-1.12,2.7c-1,1.27-2.32,2.4-2.64,4.08-.17.83,1.11,1.19,1.27.35.4-2,2.42-3.17,3.31-5,1.18-2.39,0-4.83-1.22-7a17,17,0,0,1-1-1.9,10,10,0,0,0-.52-1.54,1.35,1.35,0,0,0-1-.66,6.45,6.45,0,0,1-2-.5c-2-1-3.85-3.43-6.24-1.93-.72.45-.06,1.59.66,1.14Z"/><path d="M76.29,664.6c.17-1.92,3.08-4.08,5-4S84,663,84,664.94a9.5,9.5,0,0,0,0,2.13,5,5,0,0,0,.68,1.35c.75,1.22-.67,3.51-1.78,4.43-.43.35-1,.51-1.36.95a1.73,1.73,0,0,0,.54,2.23,23.15,23.15,0,0,0,2.22,1.27c1.33.85,4,1.9,3.93,3.46-.14,2.69-2.88,4.79-5.64,4.91a10.22,10.22,0,0,1-7.35-3.23,16.06,16.06,0,0,1-4.83-11.77,8.9,8.9,0,0,1,1.45-5c1.47-2,4-3,6.44-3.86Z"/><path d="M76.93,664.78c.26-1.79,2.88-4,4.76-3.46,1.07.32,1.46,1.61,1.61,2.58s-.22,2.26.06,3.34a15.26,15.26,0,0,0,.74,1.52,2,2,0,0,1-.17,1.6,5.21,5.21,0,0,1-2.09,2.36c-1.71,1.07-1.38,3,.19,4.09.89.61,1.93,1.08,2.88,1.61a7.57,7.57,0,0,1,2.37,1.64c.69.9-.09,2.29-.72,3a5.68,5.68,0,0,1-2.94,1.77c-5.43,1.35-10.24-4.45-11.76-9a12.8,12.8,0,0,1-.2-8.46c1.13-2.86,4.12-4,6.8-4.94l-.74-1-2,2.77c-.5.69.65,1.35,1.14.66l2-2.77a.67.67,0,0,0-.75-1c-2.57.92-5.33,2-6.93,4.32S69.51,671.22,70,674c1,5.57,5.45,11.74,11.5,12.3a7,7,0,0,0,6.62-3.13,4,4,0,0,0,.61-3.2,4.56,4.56,0,0,0-2.09-2.07c-1.13-.7-2.32-1.3-3.48-1.95-.77-.42-1.67-1.22-.78-2,.44-.4,1-.6,1.41-1a6.21,6.21,0,0,0,1.69-3.14c.22-1.42-.95-2.33-.88-3.73.12-2.29-.22-6-3.27-6.07-2.36-.08-5.34,2.1-5.69,4.48C75.53,665.26,76.81,665.62,76.93,664.78Z"/><path d="M74.82,681.8c-1.95,1.93-1.9,5.05-1.6,7.78.66,6,1.84,12.33-.54,17.87-1.33,3.11-3.66,5.65-5.74,8.31s-4,5.66-4.25,9,1.72,7.11,5,7.8c2.72.57,5.55-1.08,7.08-3.41a16.09,16.09,0,0,0,2.16-8,52.23,52.23,0,0,1,.7-8.3c.43-1.95,1.2-3.81,1.55-5.77,1.16-6.54-2.46-12.84-4.19-19.26a4.83,4.83,0,0,1,0-3.33,4,4,0,0,0,.56-1.23c0-.45-.35-1-.77-.83"/><path d="M74.36,681.33c-2.51,2.64-2,6.48-1.63,9.79.49,4.12,1.14,8.39.39,12.52-.79,4.41-3.47,7.66-6.18,11.06-2.36,3-4.71,6.31-4.91,10.23-.16,3,1.26,6.3,4,7.73,3.06,1.6,6.67.18,8.75-2.34,2.45-3,2.78-7.06,2.93-10.78a34.87,34.87,0,0,1,.68-6.84A53.81,53.81,0,0,0,80,706.46c.58-4.65-1.07-9.18-2.6-13.49-.4-1.12-.8-2.24-1.16-3.38a12.45,12.45,0,0,1-.85-3.59c0-1.08,1-2,.81-3a1.34,1.34,0,0,0-1.4-1.13c-.84.06-.85,1.38,0,1.32.14,0-.34,1-.39,1.14a3.64,3.64,0,0,0-.28,1,6.46,6.46,0,0,0,.24,2.62c.46,1.85,1.12,3.66,1.76,5.45,1.25,3.53,2.62,7.16,2.67,10.95S77,711.59,76.6,715.38s0,7.59-1.27,11.19c-1.13,3.22-4.52,6.58-8.2,5.15-3-1.17-4.19-4.92-3.66-7.87.67-3.7,3.18-6.7,5.47-9.54s4.29-5.56,5.17-9c1-3.94.66-8.06.2-12-.39-3.38-1.67-8.2,1-11,.59-.62-.34-1.55-.93-.94Z"/><path d="M92.64,678.14a12.29,12.29,0,0,0,8.6,7c.83.18,1.18-1.09.35-1.27a11.08,11.08,0,0,1-7.81-6.39.66.66,0,0,0-.9-.23.67.67,0,0,0-.24.9Z"/><path d="M60.9,618.18C59.34,626,63.25,633,66.23,639.92a119.61,119.61,0,0,1,4.06,11.69L74,663.56c.26.81,1.53.46,1.28-.35l-3.63-11.54c-1.17-3.74-2.28-7.51-3.78-11.14-2.88-6.95-7.31-14.16-5.74-22,.16-.83-1.11-1.18-1.27-.35Z"/><path d="M67.07,633.24c2.26,10.18,10.57,17.66,13,27.75.2.83,1.48.48,1.28-.35-2.45-10.1-10.77-17.58-13-27.75-.18-.83-1.45-.48-1.27.35Z"/><path d="M62.72,619.87a18.41,18.41,0,0,1,.26,4.06,6.15,6.15,0,0,0,.76,3.46,7.25,7.25,0,0,0,2.07,2.06,2.12,2.12,0,0,0,1.42.24c.3,0,1.11-.37,1.38-.14.64.54,1.58-.38.93-.94a1.84,1.84,0,0,0-1.58-.39,3.36,3.36,0,0,1-1.36.15c.11,0-.09,0-.13-.07l-.21-.14a4.81,4.81,0,0,1-.48-.42,7.3,7.3,0,0,1-.9-1,2.32,2.32,0,0,1-.45-1.22,11.43,11.43,0,0,1-.13-1.94,16.1,16.1,0,0,0-.31-4c-.2-.82-1.48-.47-1.27.35Z"/><path d="M68.48,633c0-.16.07-.31.11-.47s0-.14.08-.2,0,.06,0,0l0-.09a2.86,2.86,0,0,1,.24-.42l.12-.18c0-.05-.09.12,0,0l.08-.1.32-.32.09-.08,0,0,0,0a1.13,1.13,0,0,0,.18-.12,3.18,3.18,0,0,1,.4-.23l.11-.05-.08,0,.07,0,.23-.08a.67.67,0,0,0,.46-.81.66.66,0,0,0-.81-.46,4.2,4.2,0,0,0-2.89,3.23.7.7,0,0,0,.07.51.69.69,0,0,0,.39.3.67.67,0,0,0,.81-.46Z"/><path d="M118.31,685.76a6.05,6.05,0,0,0-2.8.21c-1.34.31-2.61.84-3.94,1.19a34.14,34.14,0,0,1-5.2.84,12,12,0,0,0-4.32,1c-2.2,1.11-3.39,4-1.8,6.09,1.37,1.85,4.1,2,6.18,1.71a50.25,50.25,0,0,0,19.23-6.49c3.1-1.81.37-4.73-1.31-6.54a45.79,45.79,0,0,0-6.72-5.63,32.55,32.55,0,0,1-7.36-6.74c-.65-.89-1.23-1.81-1.91-2.68s-1.26-1.47-1.78-2.26-1.6,0-1.14.66c.75,1.15,1.75,2.13,2.54,3.25a31.73,31.73,0,0,0,4.49,5.39c3.65,3.3,8,5.67,11.33,9.37.91,1,2.86,2.7,1.36,4a20.69,20.69,0,0,1-4.2,2.19,49.48,49.48,0,0,1-8.38,3,28.59,28.59,0,0,1-8,1.3,4.7,4.7,0,0,1-3-1,2.67,2.67,0,0,1,.2-3.82c1.14-1.09,2.93-1.31,4.43-1.47a40.9,40.9,0,0,0,4.52-.62c1.44-.31,2.81-.83,4.22-1.24a6.36,6.36,0,0,1,3-.45.66.66,0,0,0,.35-1.27Z"/><path d="M100,663.16a34.45,34.45,0,0,0-.23,4.18,4,4,0,0,0,1.74,3.09,15.75,15.75,0,0,0,2.2,1.4,11.28,11.28,0,0,1,2.26,1.31,17.18,17.18,0,0,1,2,2.83c1.52,2.2,3,4.46,4.53,6.61a12.92,12.92,0,0,0,6,4.67c.8.31,1.14-1,.36-1.27a12.08,12.08,0,0,1-5.68-4.77c-1.39-2-2.76-4.06-4.15-6.08-.61-.88-1.17-1.82-1.86-2.63a10.94,10.94,0,0,0-3.27-2.09c-1.39-.79-2.72-1.63-2.78-3.37,0-1.29.17-2.58.24-3.88,0-.85-1.28-.85-1.32,0Z"/><path d="M87.61,684.59c2.92,1.81,5,4.58,7.12,7.19A36.77,36.77,0,0,0,101,698c4.92,3.62,11.23,3,17,3.2a56.26,56.26,0,0,1,12.63,1.92.66.66,0,0,0,.35-1.27,53,53,0,0,0-10.45-1.83c-4-.28-8,0-12-.54a14,14,0,0,1-6.3-2.2,31.45,31.45,0,0,1-6.22-6c-2.37-2.83-4.56-5.86-7.76-7.84-.73-.45-1.39.7-.67,1.14Z"/><path d="M101.71,685.33a22.25,22.25,0,0,1,3.05.48c1,.17,2,.34,2.94.54,2,.41,4,.85,6,1.18.83.14,1.19-1.14.35-1.27-2.1-.34-4.17-.81-6.25-1.23-1-.21-2.09-.37-3.13-.57a20,20,0,0,0-3-.45.66.66,0,0,0,0,1.32Z"/><path d="M124.74,691a37.16,37.16,0,0,0,4.93.65,19.21,19.21,0,0,1,5.77,1.46c.77.33,1.44-.81.66-1.14a21,21,0,0,0-6-1.59,44.33,44.33,0,0,1-5-.65c-.83-.2-1.18,1.07-.35,1.27Z"/><path d="M135.42,692.31c-.59,4-2.73,7.31-5.27,10.39-.54.65.39,1.59.93.93,2.68-3.24,5-6.72,5.61-11a.67.67,0,0,0-.46-.81.66.66,0,0,0-.81.46Z"/><path d="M136.38,693.2l.19,0c.12,0-.12,0,0,0l.12,0,.51,0a9,9,0,0,1,1.16,0l.6,0h.1l.09,0a2.84,2.84,0,0,1,.31.06l.57.15.1,0c.17.06-.07,0,0,0l.26.13a.68.68,0,0,0,.91-.24.67.67,0,0,0-.24-.9,6,6,0,0,0-2.66-.64,10.33,10.33,0,0,0-2.36.14.67.67,0,0,0-.47.81.69.69,0,0,0,.82.47Z"/><path d="M130,703.22a15.6,15.6,0,0,0,2.94,3.87A20.26,20.26,0,0,0,137,710.5a11.72,11.72,0,0,0,10,.93c3.4-1.32,6.13-4,8.48-6.67a64,64,0,0,0,7-9.77,134.29,134.29,0,0,0,6.45-13.07c.34-.77-.8-1.45-1.14-.67-3.16,7.12-6.52,14.25-11.39,20.37-4.11,5.16-9.79,11.23-17,8.52a14,14,0,0,1-4.85-3.39,16,16,0,0,1-3.35-4.2c-.39-.75-1.53-.09-1.14.67Z"/><path d="M203.64,683.92c-5.59,1.39-11,.46-16.25-1.78A85.69,85.69,0,0,0,173.17,677c-1.83-.42-3.64-1-5.47-1.37a6.83,6.83,0,0,0-5.07.87,89.62,89.62,0,0,0-8.69,5.64,109.21,109.21,0,0,0-14.47,11.68.66.66,0,0,0,.93.94l3.44-3.18c.62-.58-.31-1.51-.94-.93l-3.43,3.17.93.94a99.62,99.62,0,0,1,12.9-10.55c3-2.12,6-4.21,9.1-6.06,1.73-1,3.2-1.69,5.28-1.16,1.78.45,3.55.91,5.33,1.33,5,1.17,9.49,3.21,14.17,5.17,5.42,2.28,11,3.16,16.82,1.72a.66.66,0,0,0-.36-1.27Z"/><path d="M203.78,685.24a36,36,0,0,1,6.52-1.47c.81-.14,1.59-.32,2.39-.48s.42.28.09.68a8.87,8.87,0,0,1-1.09,1.12c-1.53,1.34-3.42,2.2-4.94,3.55s-2.54,3.19-4.55,4-3.72-.4-5.24-1.77a12.37,12.37,0,0,0-4.42-2.73c-4-1.35-8.33-.51-12.47-.35s-9.65-.75-11.21-5.34c-.27-.8-1.54-.45-1.27.35,1.36,4,5.5,5.93,9.47,6.26,5.25.44,10.91-1.53,15.95.66,2,.88,3.28,2.65,5.11,3.77a5.31,5.31,0,0,0,5.54-.1c2.1-1.21,3.31-3.4,5.3-4.76,1.79-1.22,3.84-2.31,5.1-4.14a1.71,1.71,0,0,0,.13-2.16c-.59-.64-1.52-.38-2.25-.19-2.82.73-5.74.85-8.52,1.84-.79.29-.45,1.57.36,1.28Z"/><path d="M196.12,690.27a.44.44,0,0,1-.2-.18c-.07-.13,0-.14,0-.2,0,.2-.12,0,0,.05l.16,0a1.88,1.88,0,0,1,.41,0,3.24,3.24,0,0,1,1.83,1.19,7.45,7.45,0,0,0,4.58,2.4c.85,0,.85-1.29,0-1.32a5.22,5.22,0,0,1-2.7-1.2,9.49,9.49,0,0,1-1.16-1,5.14,5.14,0,0,0-1.23-1,2.73,2.73,0,0,0-2.76,0,1.54,1.54,0,0,0,.42,2.47c.74.41,1.41-.73.67-1.14Z"/><path d="M198.12,690.33c1-.64,2.09-1.14,3.06-1.83a7.29,7.29,0,0,0,2.7-3.29.67.67,0,0,0-.46-.82.68.68,0,0,0-.82.47,5.92,5.92,0,0,1-2.26,2.62c-.92.63-1.94,1.11-2.88,1.71a.69.69,0,0,0-.24.91.66.66,0,0,0,.9.23Z"/><path d="M147.93,711.05a25.92,25.92,0,0,0,17.14-1.73c.76-.36.09-1.5-.67-1.14a24.54,24.54,0,0,1-16.12,1.6.66.66,0,0,0-.35,1.27Z"/><path d="M164,709c-1.35,7,2.64,13.31,6.46,18.77,4.06,5.79,9,12.75,6.52,20.16a.66.66,0,0,0,.63.84c3.18-.07,5.66,2.39,7.82,4.42,1.92,1.79,4.06,3.61,6.87,3.1,1-.19,2.11-.63,2.19-1.82A2.21,2.21,0,0,0,194,753c-.54-.82-1.11-1.61-1.68-2.41-2.08-2.91-4.25-5.75-6.29-8.68a47.92,47.92,0,0,1-6.32-13.81c-1.91-6.55-2.94-13.54-6.48-19.5a18.3,18.3,0,0,0-6.83-6.59,23,23,0,0,0-7.53-2.28c-.83-.14-1.19,1.13-.35,1.27a23.63,23.63,0,0,1,6.15,1.61,17.07,17.07,0,0,1,6.56,5.35c3.68,5,4.9,11.66,6.42,17.58a62.76,62.76,0,0,0,5,13.31,57.1,57.1,0,0,0,4.84,7.31c.91,1.24,1.83,2.48,2.74,3.73l1.47,2.05A9,9,0,0,1,193,754c.25,1-1.48,1-2.16,1a5,5,0,0,1-2.22-.84,29.69,29.69,0,0,1-3.6-3.13c-2.11-1.88-4.53-3.69-7.49-3.63l.64.83c2.3-6.91-1.46-13.76-5.32-19.3s-9.09-12.26-7.66-19.63c.16-.83-1.11-1.19-1.27-.35Z"/><path d="M178.46,742.32c.66-.8.09-2.06-.61-2.65a1.39,1.39,0,0,0-1.63-.16,1.53,1.53,0,0,0-.78,1.57,4.06,4.06,0,0,0,.74,1.2,3.87,3.87,0,0,1,.5,1.66c.13,1.34-.1,2.7,0,4,.07.84,1.39.85,1.32,0-.18-2,.34-4.09-.53-6a4.88,4.88,0,0,0-.56-.86l-.21-.34c.12.21-.09.13,0,0a1.42,1.42,0,0,1,.13-.12c.12-.06.22.13.31.27a1.9,1.9,0,0,1,.21.43s.07.2,0,.15-.08.09.08-.11a.67.67,0,0,0,0,.93.65.65,0,0,0,.93,0Z"/><path d="M178,743.56a17.94,17.94,0,0,0,4.25,2.38,7.59,7.59,0,0,0,5.15,0c.8-.27.45-1.54-.36-1.28a7.89,7.89,0,0,1-2.59.41,5.64,5.64,0,0,1-2-.48,16.8,16.8,0,0,1-3.81-2.2.65.65,0,0,0-.9.24.67.67,0,0,0,.23.9Z"/><path d="M166.07,720.08a10,10,0,0,0,5.33.07,10.5,10.5,0,0,0,4.85-2.24c.63-.57-.31-1.51-.94-.94a9.13,9.13,0,0,1-4.26,1.91,8.76,8.76,0,0,1-4.63-.07c-.81-.28-1.15,1-.35,1.27Z"/><path d="M180,680.47a8.64,8.64,0,0,1-1.71,6.29,4.44,4.44,0,0,1-.65.65,1.24,1.24,0,0,1-.24.16l-.15.09c-.12.06,0,0-.09,0-.8.28-.46,1.55.35,1.28,1.43-.49,2.37-2,3-3.3a9.49,9.49,0,0,0,.8-5.55c-.15-.83-1.43-.48-1.27.35Z"/><path d="M120.72,692a10,10,0,0,1-3.85,7.76.68.68,0,0,0-.24.91.66.66,0,0,0,.9.23A11.35,11.35,0,0,0,122,692a.66.66,0,0,0-1.32,0Z"/><path d="M93.58,689.9a8.15,8.15,0,0,0,5.11-1.18,8.07,8.07,0,0,0,3.66-3.73.66.66,0,0,0-.46-.81.67.67,0,0,0-.81.46A6.8,6.8,0,0,1,98,687.58a6.68,6.68,0,0,1-4.09,1,.68.68,0,0,0-.81.47.66.66,0,0,0,.46.81Z"/><path d="M297.55,144c-5.92,5.71-8.22,14.91-14.92,16.63-2.62.68-9,.58-10.8-4.16a8,8,0,0,0,11.09,11.12c-.1.07-.11.3-.05.61.67,3.52,5.17,3.43,7.41,2,3.29-2.1,3.59-6.08,2-9.8,1.35,3.09,6.1,3.36,8.61,1.1s3.11-6,2.78-9.35a3.3,3.3,0,0,0,6.05-2c.05,1.15,3.63,3.81,4.5,4.13a9.4,9.4,0,0,0,9.94-2.29c2.43-2.32,3.58-6.66,1.34-9.56,8-.06,11.47,14.91,22.18,9.37-3.63-5.55-6.7-7.53-10.82-10.35a32.68,32.68,0,0,0-32.39-3C301.67,139.76,299.89,141.75,297.55,144Z" style="fill:#fff"/><path d="M296.61,143.07a43.4,43.4,0,0,0-5.88,7.79c-1.58,2.46-3.14,5.15-5.47,7-3.23,2.56-10.33,2.74-12.16-1.73a1.34,1.34,0,0,0-2.41-.31,9.27,9.27,0,0,0,12.9,12.92l-1.81-1.81c-1.08,1.8.87,4.23,2.45,5a7.24,7.24,0,0,0,5.65,0,7.45,7.45,0,0,0,4.3-4.77,10.94,10.94,0,0,0-.8-7.37l-2.28,1.34c1.64,3.43,6.25,4,9.35,2.31,3.91-2.1,4.85-7.19,4.5-11.23l-2.46.67A4.62,4.62,0,0,0,311,150.2h-2.64c.27,2.08,2.6,3.67,4.22,4.74a9.5,9.5,0,0,0,7.71.86,11,11,0,0,0,6.73-5.58,8.28,8.28,0,0,0-.42-8.41l-1.14,2c4.1,0,7,4.45,9.76,6.92a13.82,13.82,0,0,0,5.69,3.4,10.52,10.52,0,0,0,7.4-1.13,1.33,1.33,0,0,0,.47-1.81,32.52,32.52,0,0,0-7.58-8.2,47.3,47.3,0,0,0-9.73-5.94,34.07,34.07,0,0,0-23.41-1.4,23.58,23.58,0,0,0-6.13,2.73,40.29,40.29,0,0,0-5.32,4.7c-1.22,1.19.65,3.06,1.87,1.87a44.3,44.3,0,0,1,4.22-3.89,18.14,18.14,0,0,1,4.89-2.47,30.45,30.45,0,0,1,10.87-1.75A32.13,32.13,0,0,1,329.29,139a42.3,42.3,0,0,1,9.32,5.34,30.56,30.56,0,0,1,7.89,8.18l.48-1.8a7.54,7.54,0,0,1-6.3.57,15.51,15.51,0,0,1-4.81-3.58c-2.92-2.86-6-6.51-10.41-6.54a1.33,1.33,0,0,0-1.14,2c2.86,3.94-.7,8.89-4.73,10.1a7.55,7.55,0,0,1-3.34.26,4.65,4.65,0,0,1-2.17-.74,14.19,14.19,0,0,1-1.91-1.46,9.62,9.62,0,0,1-.85-.84c-.09-.1-.36-.58-.32-.27-.21-1.63-2.62-1.75-2.64,0a2,2,0,0,1-3.59,1.28c-.69-.93-2.58-.78-2.46.67.26,3-.06,6.83-2.75,8.69-1.92,1.32-5.09,1.18-6.18-1.11-.74-1.56-2.93-.19-2.28,1.34,1.17,2.76,1.25,6.53-1.75,8.15a5.09,5.09,0,0,1-3.13.55,2.79,2.79,0,0,1-1.42-.61,1.9,1.9,0,0,1-.47-.65c-.05-.12-.09-.26-.13-.39,0-.3-.08-.26-.14.14.66-1.09-.69-2.57-1.8-1.8a6.65,6.65,0,0,1-9.29-9.31l-2.42-.32c1.86,4.53,6.94,5.94,11.45,5.27,5.11-.75,8.12-5.38,10.68-9.39a43.18,43.18,0,0,1,5.8-7.77C299.7,143.75,297.83,141.88,296.61,143.07Z"/><path d="M322.94,117.8V118a.33.33,0,0,0,.66,0v-.18a.33.33,0,0,0-.66,0V118a.33.33,0,0,0,.66,0v-.18a.33.33,0,0,0-.66,0Z"/><path d="M272.08,141.7a15.7,15.7,0,0,1,.75-7.1c.65-1.87,1.77-4.18,4-4.33a3.48,3.48,0,0,1,3.56,3.62c-.19,2.17-2.16,3.85-3.6,5.29s-3.27,3.4-3.25,5.75l.56-.24a6.26,6.26,0,0,1-2.17-3.86c-.05-.42-.69-.24-.63.17a6.7,6.7,0,0,0,2.34,4.16.33.33,0,0,0,.56-.23c0-2.77,2.53-4.69,4.27-6.5,1.37-1.44,3-3.39,2.51-5.53a4.2,4.2,0,0,0-3.84-3.3c-2.1-.07-3.58,1.61-4.38,3.37a16.17,16.17,0,0,0-1.36,8.73c.05.42.71.42.66,0Z"/><path d="M275.91,148.82a7.23,7.23,0,0,1,.95-3.58,5.21,5.21,0,0,1,2.77-2.56,1.33,1.33,0,0,1,1.5.47.84.84,0,0,1-.34,1.3c-.53.33-1.08.6-1.6,1a15.07,15.07,0,0,0-1.42,1.11,13.92,13.92,0,0,0-2.66,3.21c-.22.36.35.69.57.33a13.23,13.23,0,0,1,2.89-3.35,12.79,12.79,0,0,1,1.83-1.28c.56-.32,1.23-.58,1.49-1.21.47-1.15-.71-2.27-1.81-2.26-1.43,0-2.63,1.25-3.4,2.34a8,8,0,0,0-1.43,4.53.33.33,0,0,0,.66,0Z"/></g></g></svg>